<?xml version="1.0" encoding="utf-8"?>
<!-- Generator: Adobe Illustrator 17.1.0, SVG Export Plug-In . SVG Version: 6.00 Build 0)  -->
<!DOCTYPE svg PUBLIC "-//W3C//DTD SVG 1.1//EN" "http://www.w3.org/Graphics/SVG/1.1/DTD/svg11.dtd">
<svg version="1.1" xmlns="http://www.w3.org/2000/svg" xmlns:xlink="http://www.w3.org/1999/xlink" x="0px" y="0px"
	 viewBox="0 0 1024 768" enable-background="new 0 0 1024 768" xml:space="preserve">
<g id="black-contour">
	<path d="M790.6,362.3c-21.6-34-49.9-48.6-53.5-50.4c-0.8-4.4-3.6-12.5-9.6-23.9c-6-11.4-27-38.7-32.2-47.8
		c-5.2-9.1-9.9-19-11.4-23.9s-11.4-33.3-13.3-37.7c-1.8-4.4-9.1-20.5-15.6-37.2c-9.1-26.5-18.5-35.1-22.4-40.3
		c-7.3-11.4-19.5-19-34.8-24.4s-31.2-6.2-54.3,0s-38.5,27-41.6,31.2c-3.1,4.2-13,25.2-14.3,28.9c-1.3,3.6-2.6,5.7-5.5,9.1
		c-2.9,3.4-6.8,7.8-14.8,28.9c-8.6,20.5-7.8,41.6-7.8,41.6s-8.8,2.3-12,2.9c-3.4,0.3-6.8,1.3-8.3,3.9c-1.3,0-4.4-0.3-6.5,1.8
		c-3.1,0.8-11.4-2.9-11.4-2.9c-5.4-3.1-8.8-2.1-10.9,0c-2.1,2.1-4.7,6-4.7,6s0,0-4.7-2.9c-4.7-3.6-8.1,0-8.1,0s-5.7,3.4-11.4,7
		c-5.7,3.6-2.1,12.5,0,16.6c2.1,4.2,3.1,7.8,3.9,11.7c0.8,3.9,2.6,8.3,3.6,11.7s7.5,24.7,11.2,34.8c2.9,11.2,1,12,0,15.9
		c-1,3.9-2.9,13-0.3,16.6c2.6,3.6,2.3,8.8,2.9,10.7c0.5,1.8,1,11.2,1.3,23.9c0.3,12.7-3.4,64.5-4.4,73.6c-1,9.1-3.9,46-4.2,51.7
		c-0.3,5.7,0.5,17.7,3.1,25.2c2.6,7.5,3.1,5.7,6.2,14.8c8.1,15.3,20.8,13,23.4,12c2.6-1,10.9-6.2,12.7-8.6c1.8-2.3,6.5-5.2,6.8-5.5
		c8.1-4.4,21.3-19.2,22.9-21.1c4.2,23.7,3.4,49,3.4,49s198.7,0,205.1,0c2.3-28.7,15.3-53.9,16.2-55.8c0.9-1.8,2.1-5.3,3.6-7.8
		c-0.4,1.8-1.6,7.7-1.4,12.1c0.5-0.9,2.2-12.1,3.9-14.8c-5.5,23,0.9,41.5,1.8,45.2c0.9,3.8,2.7,7.4,2.7,7.4s-1.9-9.6-3.5-18.8
		c-1.6-9.2-0.9-18.5-0.5-23.1c0.4-4.7,1.1-2.7,1.1-0.9c0,1.8,0.4,4.9,1.6,13.5c2.1,14.4,8.6,20.5,10.9,22.8c2.3,2.3,3.9,3.7,5.7,5.7
		c6.2,6,15,7,16.8,6.2c5.8-0.4,11.3-4.3,11.9-8c-1,0.6-2.9,3.5-6.4,4.7c1.8-1.9,3.9-8.2,3.9-8.2s-3.1,3.9-6.2,7.8
		c-3.5,3.5-7.6-2.1-9.2-4.5c-1.6-2.3-5.7-12.5-6.6-24.8c-1-12.3,0.8-19.9,2.1-29.2c1.4-9.4,3.9-14.4,4.3-17.7
		c0.8,16.6,6,22.4,6.8,23.4c0.8,1,8.8,6.6,10.5,5.7c-3.3-1.9-7-6-8.4-9.6c-3.7-9.7-1.2-16.8-0.6-21.1c0.4-4.3,1.6-3.9,1.4-2.3
		c0.2,6.2,7.6,23,7.6,23s0.2-1.2-1.8-7.8c-2.3-9.7-1.4-21.2-1-23.6c1.2-0.2,6,5.5,7,4.5c-3.5-2.7-4.9-5.1-6.6-6.4
		c0,0,0.2-2.6-0.1-4.7c0.3-6.8,1-2.6,1-2.6s3.4,7.5,4.4,8.3c0.3-0.8,0.3-1.8-1.6-4.7c-4.4-11.2,0.3-2.3-1.3-6.2
		c0,0,26,41.3,27.3,43.1c1.3,1.8,30.2,49.4,32,52.2c1.8,2.9,2.6,4.2,6,8.3c3.1,8.1,0.8,8.7,0.8,8.7h71.2h1.6c0,0,0-2.7,0-6.9
		C863.4,485.2,801,377.1,790.6,362.3z M401.9,240.2c-0.4,0.6-1.8,5-2.5,5.8c0,0-0.2,1.9-1.6,0c-1.3-2.3-2.7-5.3-2.7-5.3
		s-0.5-0.6,0.3-1.2c0.8-0.6,2.5-2.1,2.9-2.9c0.6,0.5,2.7,2.1,3.1,2.3C401.7,239,402.3,239.6,401.9,240.2z M460,228
		c0.3-0.1,0.9-0.1,1.3,1.7c0.3,1.2-0.3,1.8-0.5,2.1c-0.2,0.3-2.5,4.5-2.8,8.3l-6.3-7C451.8,233.2,456.9,229.2,460,228z M447.5,258
		c-0.4,0.5-1.1,1.3-1.8,0.3c-0.5-1.1-1.1-1.5-2.2-1.2c-0.5,0.1-2-1.5-0.5-2c2-1.4,3.6-2.6,3.6-4.2c0,0,1.6,2.9,1.8,3.8
		C448.7,255.5,448.8,257,447.5,258z M461,424c-1.8,9.1-3.4,20.3-1.7,32.1c0,0-3.4-11.2-5.1-23.5c-0.5-4.8-0.4-12.2,0-14
		c0.4-1.8,3.6-8.8,7-11.7s10-7.4,10-7.4S462.9,414.9,461,424z M471,293.1c-1.9,4.2-7.7,11.9-10.2,14.6c-2.5,2.6-5.8,6-10.2,9.4
		c0.5-3.2,3.2-9.4,3.8-10.3c0.6-1,2.7-5.4,3.3-7.3s2-6.6,2-8.1s0.2-9.6,0.7-10.6s1.6-4,2-4.6c0.4-0.6,1.1-4.6,1.2-6.4
		c0.1-1.8,1-6.4,1.4-7.4c0.3-1,1.2-3.9,1.8-3.2c0,0,2.9,13.6,5.2,18.4C474.2,282.3,473,288.8,471,293.1z"/>
</g>
<g id="skin">
	<path fill="#F69874" d="M429.9,543.7c0,0,10.8-3.2,11.8-3.8c-2.5,1.9-5.8,5.1-6.9,5.8c-1,0.8-10.1,7.3-17.4,3.4
		c-3.9-1.7-10.3-6-12-13.8c-1-5.1-1.7-6.8-1.7-6.8v3.9c0,0-3.6-7.1-4.7-13.6s-2.7-16-1.7-27.2c1-11.2,3.6-41.2,4-45.2
		c0.4-4,3.8-52.2,4-56.8s0.4-30.5-1.4-37.4c2.2,7.3,1.3,1.7,2.2,7.3c0.6-1.6-0.4-8.3-1.2-10.3c-0.8-1.9-4.3-11.4-4.4-13.1
		c-0.1-1.7-2.2-6.5,1.2-13.6c3.5-6.6,6.5-11.2,6.5-11.2s-4.5,5.4-5.6,7.4c-0.1-2.7-0.5-8.5-1.8-12.7s-9.9-30.8-9.9-30.8
		s2.5,2.6,3.4,6.1c-0.3-2.6-0.9-4-2.2-6.1s-4.2-6.8-5.1-11.7c-0.9-4.9-2.2-9.1-3.2-11.7s-4.5-9.4-4.5-12.8c-0.1-3.4-0.1-4.5,1.6-5.7
		c1.6-1.2,12.9-7.7,13.8-8.3c1-0.6,2.9-1.8,5.4,0c2.5,1.8,8.1,4.9,8.1,4.9s0.3,3.2,1.4,4c1.2,0.8,3.2,2.4,3.2,2.4s1,0.6,2.5,0.5
		c-0.1,0.9-3.1,3.5-6.6,3.2c-3.5-0.3-6.4-0.8-8.8-3.5s-2.9-3.4-2.9-3.4s0.9,2.5,0,3.6c-0.9,1-2.7,3.6-6.1,4.2c-3.4,0.5-2.6,1-2.6,1
		s0.3,0.5,1.9,0.2c1.6-0.3,2.8-0.9,3.2-1c0.4-0.1,1-0.4,1.3,0.7c0.3,1.1,2.1,4.9,2.5,5.2c0.4,0.3,1.3,1.2,2.9,1
		c1.6-0.2,5.7-1.6,6-1.9s-3.1,0.5-4.4,0.6c-1.3,0.1-1.9,0.4-1.4-0.8c0.6-1.2,1.8-4,1.9-4.6c0.1-0.6,0.7-0.6,1.4-0.2
		c0.6,0.5,4.1,0.7,4.9,0.6c0.8-0.1,6.2-0.6,7.9-3.6c1.9,0.7,2.9,1.1,3.2,1.1s-2.1,2.1-4.1,2.9c-1.9,0.8-3.1,0.9-4.2,1
		s-5,1.1-2.1,1.2c2.9,0.1,8.9-1.9,11.1-3.4c2.2-1.4,2.7-1.1,3.8-0.8c1,0.3,3.7,0.8,4.4,0.8c0.1,1.2,1.5,3.9,2.1,4.6
		c-1.1,0.3-4.7,0.1-7.1-1c-2.4-1.1-4.6-2.1-2.7-0.5c1.9,1.7,4.8,3.1,6.3,3.3c1.5,0.2,3.8,0.5,4.3,0.4c0.3,1.2,1.8,4.8,2.5,5.5
		c0.6,0.7,0.8,1.2-0.2,1.4c-1,0.2-6.4,1.7-7.8,3c2.4-0.7,5.8-1.6,7.7-1.8c1.9-0.1,6,0.5,3.1,1.3c-3,0.8-10.3,3.4-15.5,11
		c1.8-1.3,4.6-4.6,7.5-6.3c1.2-0.8,2.5-1.1,1.6,0.5c-0.8,1.6-2.3,5.1-2.5,9.2s1.2,13.6,2,15c-0.1-2.4-0.7-7.7-0.8-9.2
		c-0.1-1.4-1-8.9,2.1-14.2c1-1.9,2.3-2.7,3.2-3.2c0.8-0.5,2.1-0.6,0.8,0.5s-1.7,1.9-0.5,1.1c1.2-0.8,5-2.8,5.7-3.1
		c0.6-0.3,2.5-1,3,0.5c0.5,1.4,1.9,4,3,5.3s7,6.8,8.3,10.1c0.4,0.4,1.2,0.3,0.3-1.2c-1-1.4-4.9-7-6.3-8.3c-1.4-1.3-2.3-3.1-1.3-4.4
		c0.5-0.5,1-1.6,1.5-0.3c0.5,1.3,3.2,5.8,6.5,5.2c3.3-0.6,2.3-0.7,3.5-1c1.3-0.3,2.8-0.7,3-3.2c-0.4-1.9-0.8-3.6-0.8-4.8
		c0-1.2-0.4-2.9-0.4-4.2c0-1.3-0.4-5.5-0.5-6.4c-0.1-0.9-0.3-2.9-1-3.9c-0.7-1-0.4-2.7,0.1-4.4c0.5-1.7,1.7-5.3,6.2-10.3
		c1-1.2,2.3-1.8,2.8-0.1c0.5,1.7,3.3,7,3.9,7.6c0.6,0.6,1.5,2.1,1.1,3.5c-0.4,1.4-0.6,3.8-0.6,4.2s-1.6,6.5-2.7,8
		c-1.2,1.6-3.4,5.3-3.9,6.2c-0.4,0.9-3,6.9-3.1,10s-0.8,7.6-1.6,9.4c-0.8,1.9-0.8,2.1-0.8,2.1l-0.4-2.4c0,0-1,6.3-1,8
		c0,1.8-0.5,9.1-1.4,11.7c-0.9,2.6-2.8,6.6-3.2,7.3s-2.8,5.4-3.1,6.1s0.2,4-3.6,5.5c0.2,0.3,1.2,0,2-0.1c0,1.5-0.7,2.6-1.5,3.7
		c-0.8,1.1-2.6,3.4-3.2,5.4c-0.6,2-1.9,5.8-1.9,5.8s2.5-5.3,3.1-6c0.5-0.8,1.5-4.1,1.6-2.7s-0.6,3.2-0.9,4.4
		c-0.3,1.2-2.6,10.2-3,15.6c-0.4,5.4-0.5,13.2-0.5,14.6s0.7,14.8,1,17c0.3,2.1,1.2,14.8,1.4,15.8c0.1,1,1.6,17.6,1.8,18.9
		c0.1,1.2,2.1,18.9,2.2,20.4s4.4,26.6,4.9,28.2c0.5,1.7,3.4,15.7,3.7,17.3c0.3,1.5,2.3,11.2,2.3,14.4c0,3.3,0.3,14.4-0.4,25.2
		c-0.1,2.1,0,5.4,0.9,0s1.3-13.2,1.3-15.5s0.2-11.3,0-12.8c-0.2-1.5,0-1.9,0.4-0.6c0.4,1.3,1.9,8.7,2,12.6s0.5,12.2-1.4,17
		c-1.9,4.7-4.6,10.7-11.1,17.4c-2.1,2.3-6.6,5.8-14.1,9.3C437.8,540.2,429.9,543.7,429.9,543.7z"/>
	<path fill="#F69874" d="M886.5,565.2c0,0-1.9-8-3.3-11.1c-1.4-3.1-14.8-40.2-18.7-46.4c-4.5-9.7-29-62.8-33.9-69.6
		c-4.5-9.7-24-45.2-27.3-50.3c-3.3-5.1-13.6-26.3-25.5-38.8c-10.1-11.7-22-23.8-39.8-33.9c1.6,9,2.3,15.6,2.3,17.3
		c0,1.8,0.2,8.5,1.1,11.3c0.9,3.1,4.9,16.3,5.4,20.8s0.1,20.5-1.3,27.3c-1.4,6.8-3.1,19.3-3.1,19.3s-0.9,5,0.6,9.8
		c1.5,4.9,11.3,29.1,12.4,31.2c1.1,2,7.3,15.5,14.4,27.3c7.1,11.8,22.1,37,22.8,38.3c0.7,1.3,9.6,16.3,10.5,17.6
		c1,1.4,7.3,11.9,8.3,12.7c-1.7-3.7-4.1-10-4.1-10s6.7,11.6,8.3,15.2s4.1,9.2,2.8,12C822.5,565.2,886.5,565.2,886.5,565.2z"/>
	<path fill="#F69874" d="M408,228.6c0,0-1.2-0.1-0.5-1.4s4.6-5.7,4.6-5.7s2.4-2,5.7-0.6c3.3,1.4,6.6,3.2,7.5,3.4
		c0.9,0.2,3.7,0.8,6.6,2.5c2.9,1.7,4.9,2.7,4.9,2.7s3,2,3.8,4.4c0.8,2.3,2.2,7.3,2.2,7.3s0.4,0.9-0.6,1.5c-1,0.6-2.3,2.4-2.1,4.4
		s0.8,4.4,2.8,5.5c0.9,0.5,1.3,0.4,1.3,0.4c-0.2,0.4-0.9,1.1-2,1.4c-1.1,0.3-3.7,0.5-5.4-1.2c-1.7-1.8-4.1-4.4-3.8-8.5
		c-0.5,0.6-1,0.6-1.3,0c-0.2-0.7-1.6-3.4-1.6-3.4s-0.7-1.4,0.3-5.7c-0.9,0.5-0.9,0.8-1,1.2s-0.4,1.5-0.4,1.8c0,0.2,0.1,1.4-1.1,1
		c-1.2-0.4-5.8-1.8-7.5-2.5s-3-2.3-3.9-3.2c-1-0.9-7.1-4.1-7.5-4.3C408.7,229.2,408,228.6,408,228.6z"/>
	<path fill="#F69874" d="M432.1,225.4c0,0,6.5,2.9,7.8,4.1s3.2,3.2,3.7,6.8c0.5,3.5,1,5,1.3,5.8c0.3,0.8,0.9,3.8,1.3,4
		c0.3-1.7,1-2.2,1-2.2s-0.4,4.4,0.6,6c0.3-1.6,0.8-1.9,0.8-1.9s-0.3,4.5,1.2,7.8c0.9,3.1,2.4,6.2,4,8c1.2,1,3.2,0.7,3.8,0.5
		c-1.4-1.6-3.5-5.4-2-8.8c0.5-1.3,1.6-1.6,2.4-1.9s1.6,0.2,2.1,1.1c-0.2-1.8-0.6-8.5-0.6-8.5s0.2-2.6-1.6-4.9s-10.6-11.4-11.4-12
		c-0.8-0.6-5.6-4.6-5.6-4.6s-2.7-1.6-5.2-0.7C433.1,225,432.1,225.4,432.1,225.4z"/>
	<path fill="#F69874" d="M452.3,230.4c0,0-1.9,1-2.9-0.3c-1-1.4-4.2-4-7.6-6.1c-1.6-1-1.9-1.2-1.9-1.2s1.1-1.6,2.5-2.1
		s9.6-2,10.5-2.3c0.9-0.3,9-2.5,9-2.5s-1,2.9,1.2,3.1c2.2,0.2,3.6-0.7,4.7-1.5s2.3-1.6,2.3-1.6s0.6-1.4,1.6-0.4s1.9,3,0.7,4.9
		c-1.2,1.9-3.3,2.8-5.1,3.6c-1.8,0.8-6.6,2.6-7.3,3c-0.7,0.3-1.6,0.8-5,0.9s-3.4,0.8-2.2,0.8c1.2,0,2.3,0.1,2.3,0.1
		S453.9,229.8,452.3,230.4z"/>
	<path fill="#F69874" d="M474.2,223.3c0,0-1.8-0.6-0.9-1.6c0.9-1,2.8-2.7,2.8-2.7s1.4-0.7,2.9,0c1.5,0.7,2,1.4,1.9,2.5
		c-0.1,1-0.6,3.4-1.8,3C478.1,224,475.5,223.4,474.2,223.3z"/>
	<path fill="#F69874" d="M516.8,382.2c0,0,7.6,0.1,13.4-3.9c5.8-4,13.7-11.6,13.7-11.6s11-0.6,11.7-0.9c-1.7-0.5-9.7-1-9.7-1
		s5.7-6.6,7.6-10.7c1.9-4.1,9.4-18.9,11.1-26.6c0.3,0.8,0.5,3.3,0.7,5s1.2,14.7,1.2,14.7s0.6-1.3,0.6-2.1c0-0.9,0-21.2,0-21.2
		s-0.6-2.9,0.6-0.7c0.4,1.9,0.7,8.7,1.3,9.6c0.2-2.2,0-9.4,0-9.4s5.2,2.9,9.1,2.3c3.9-0.6,9.6-2.5,10.6-3.5c-0.7,0-1.9,0-1.9,0
		s-8.4,3.7-12.1,1.4c3.6,0,8.8-0.9,13.1-2.7c4.3-1.9,11.2-4.4,15.3-8.9c-2.1,1.2-6.2,3.6-6.8,3.7c2.9-2.6,6.8-6,6.8-6l5.6-4.7
		c0,0-0.5,7,0,9.5c0.5,2.4,2,10.7,2.4,10.8c0.3-1.9-1.3-17,0-22.2c1.7-1.7,9-8,9-8c-0.1,0.8-6,6.1-6.1,6.4c1.6-0.6,5-4,6.1-4.6
		c0.7-0.3,1.2,0.8,1.2,1.7c0.1,0.9,0,1.6,0,1.6s0.8-1.1,0.9-1.8c0.4,1.5,1.6,5,1.8,5.4c-0.1-1.9-0.4-3.8,0.7-1.3
		c1.1,2.5,5.5,10.3,10.2,14.1c-0.5-1.6-1.1-2-1.4-2.7c-0.3-0.7-5-6.6-5-8.3c2.6,3.5,6.2,8.6,7.2,9.5c1,0.9,3.3,4,3.6,6.6
		c0.4,2.6,1.4,6.1,1.4,7.8s0.5,6.3,0.5,6.3s0.7-1.9,0.9-4.2c-0.3-2.6-0.6-6.8-0.6-6.8s-0.7-3.6,0.6-1.6c1.2,2,1.6,5.4,1.8,6.6
		c0.2,1.3,0.8,8.8,1,10s1.9,8.3,2.6,10.3c0.8,2,6.1,12.9,6.6,14.2c-5.9-0.2-18.7,0.4-22.4,2c10.8-0.3,17.1-0.6,23.4-0.2
		c2.5,4.4,9.7,13.9,12.5,16.6c2.7,2.6,8.5,8.5,8.9,8.8c-1,1.3-14.1,11.7-23.8,16.6c-9.6,4.9-22.6,9.1-24.8,9.7s-8.1,1.6-10.6,1.6
		s-21.9-2.2-23-2.3c-0.1-1.3-0.1-2-1.5-0.2c-1.6-0.2-6.6-0.9-6.6-0.9s0-8.1-0.5-9c-0.4,2.7-1.4,8.9-1.4,8.9s-22.3-1.4-37.6-11.2
		C531.6,396.6,520.8,386,516.8,382.2z"/>
	<path d="M583.9,398c0,0-1.3-3.2-1.4-3.7s-0.3-3.2,1.4-0.8C584.2,394.1,584.5,398,583.9,398z"/>
</g>
<g id="folds">
	<path stroke="#000000" stroke-width="0.3899" stroke-linejoin="round" stroke-miterlimit="10" d="M434.7,305.4c0,0-2.6-3.9-3.6-8.3
		s-4.3-11.9-7.3-16.4c0,0,4,8.5,4.7,11.4C430.4,296.7,431,303.3,434.7,305.4z"/>
	<path stroke="#000000" stroke-width="0.3899" stroke-linejoin="round" stroke-miterlimit="10" d="M404.1,248.9c0,0,3.1-1.3,6.5-0.6
		c3.4,0.7,4.6,1.2,4.6,1.2s-4.5-0.6-6.3-0.7C407,248.7,404.3,248.7,404.1,248.9z"/>
</g>
<g id="nails">
	<path fill="#DB325B" d="M409.2,230.2c0,0-0.2,2.2,1.7,3.8s2.7,2,2.7,2s1.2,0.5,2.1,0c0.6-0.3,1.2-0.8,0-1.8
		C414.5,233.2,412.1,231.6,409.2,230.2z"/>
	<path fill="#DB325B" d="M442.8,242.9c0,0-2,1.5-1.9,4.5c0.2,1.2,0.8,3.9,2.4,4.4s2.5,0.4,2.5,0.4s1-0.2,0-2.1
		S442.8,242.9,442.8,242.9z"/>
	<path fill="#DB325B" d="M457.5,254.6c0,0,1.1-1.2,1.7,0.3s1.8,4.7,1.8,4.7s1,2.6-0.5,3.8c-1.5,1.2-3.1,0.3-3.3-0.5
		S454,256.8,457.5,254.6z"/>
	<path fill="#DB325B" d="M470.3,214.6l-4,3.1c0,0-2.4,1.5-3.8,0c-0.7-1,0.6-2.7,3-3.1C466.2,214.5,469.7,214.5,470.3,214.6z"/>
	<path fill="#DB325B" d="M480.6,224.5l1.2,0.3c0,0,1.4-3.6,0.2-4.3c-0.5-0.3-0.6-0.2-0.6,0.3C481.4,221.2,481.7,222.3,480.6,224.5z"
		/>
</g>
<g id="nail-glare">
	<path fill="#FFFDF8" d="M412.3,233c0,0-0.9-0.8,0.5-0.4s4.1,2.6,2.9,2.9C414.5,235.8,413.9,233.9,412.3,233z"/>
	<path fill="#FFFDF8" d="M442.6,244.7c0,0-0.1-2.4,0.8,0c0.9,2.4,1.7,5.5,1.8,5.7s0,1.8-0.7,0.4
		C443.9,249.4,442.9,246.1,442.6,244.7z"/>
	<path fill="#FFFDF8" d="M459,255.1c0,0,1.7,4.7,1.8,5.4s0,2.4-1.4,2.6c-1.5,0.2-0.2-0.5,0-0.9c0.3-0.4,0.5-1.9-0.5-4.9
		C458.7,256,458.3,255,459,255.1z"/>
	<path fill="#FFFDF8" d="M463.4,216.4c0,0-1.3,0.8-0.5-0.6c0.6-0.5,2.2-1.7,4.4-1.1C467.1,215.1,464.2,215.8,463.4,216.4z"/>
</g>
<g id="t-shirt">
	<path fill="#FFFFFF" d="M470.9,415.2c0,0,4.4-9.8,12-18.3c1.7-2.5,4.7-4.3,7.4-5.8s9-5.3,19.1-7.5c3.2,6.1,5.3,8.3,8.8,11.7
		c3.5,3.4,12.6,11.6,13.6,11.8c-2.2-2.9-17.5-16.9-21.1-24c1,0.1,1.8,0,1.8,0s14.4,12.7,15.9,13.8c1.4,1,14.8,12,27.3,16.8
		s18.5,5.8,23.5,6.5c5.1,0.6,12.3,1.3,14.6,1.4c2.2,0.1,4,0.4,1.8,1.9s-18.1,5.1-20.1,5.5c-2.1,0.4-18.5,2.9-19.5,3.2
		c4.7,0.1,20.5-1.6,22.9-1.8c2.3-0.3,19.4-2.6,21.7-2.9c2.3-0.3,9.6-1.6,13-2.1c3.4-0.5,9.4-1.9,11.7-2.5
		c2.3-0.5,16.8-5.3,26.3-10.4s19.2-9.5,27.3-17.5c4,4.4,12.9,15.9,18.6,32.4c2.3,7.4,4,17.4,0.8,24.6c-1.2,2.9-5.2,9.6-12.2,17.2
		c3-1.9,16.9-13.1,16.2-25.9c1.2,5.1,2.7,10.8,1.6,25.1c-0.6,6.5-1.9,14.8-2.2,16.2c-0.3,1.4-0.4,8.4-8.6,19.5
		c-1.6,2.6-10.9,12.5-17.3,15.9c3.9-1,11.8-7.7,13.1-8.6c-0.9,2.3-10.7,23.4-16.4,53.8c-2.6,0-192.7,0-192.7,0s0.1-11.8-0.1-14.7
		c-0.3-2.9-1.4-24.5-1.4-26.8s-0.5-20.4-0.3-21.4c1.9,0.9,14.9,3.4,22.4,2.5c-3-0.6-18.2-2.1-22.1-3.9c0-1.9,0-1.9,0-1.9
		s11.8,1.7,17.8,1.2s12.6-1.4,14.3-1.6c1.7-0.1,6.1-1.2,6.1-1.2s-19.8,0.4-20.8,0.5c-1,0.1-9.1,1-13.8-1.6s-9.9-7.4-12.6-15.1
		c-2.7-7.7-4.8-16.6-5.6-32.7s6.2-27,7.7-29.6c1.4-2.6,5.5-9.4,20.4-21.4C489,398.4,476.5,407.1,470.9,415.2z"/>
	<path d="M522.4,432.6c0,0,18,0.7,26.6,0C550.1,433.8,535,435.3,522.4,432.6z"/>
	<path d="M542,510.7c0,0,3.5-1.9,20.3-5.2c8.8-1.4,16.4-0.9,24.2,1c7.8,1.9,16.1,4.8,16.1,4.8s-14.1-3-18.7-3.9
		C579.3,506.5,569.2,504.1,542,510.7z"/>
	<path d="M555.3,511.3c0,0,7.9-4,18.7-2.3c4.7,0.8,7.7,2.3,7.7,2.3S567.7,508.2,555.3,511.3z"/>
	<path d="M620,513.6c0,0,18.1,0.6,22.4,1.2s12.9,1,21.3-1.2s18.5-6.8,20.8-8.9c-1.8,2.6-10.9,9.4-19.2,11.6c-8.3,2.2-19.8,1.6-29,0
		C627,514.7,620,513.6,620,513.6z"/>
</g>
<g id="face">
	<path fill="#F69874" d="M503.4,226.2c0,0,4.4,12.9,5.5,15.3s5.6,12.5,10,18.5c4.4,6,12.5,15.5,13.3,16.4
		c0.8,0.9,11.6,12.5,14.3,16.1c2.7,3.6,9.9,15.1,10.8,16.1s6.4,6.9,9.9,8.4c3.5,1.6,10.1,3.4,17,0s7.3-4.4,9-5.8
		c1.7-1.4,25-23.3,33.5-36.6c0.1-0.4-0.4-0.6-1.7,1.1c-1.3,1.8-17.9,20.7-17.9,20.7s0.3-1.2,1.1-2.1c0.8-1,12.3-14.3,13-15.4
		c0.7-1.1,2.6-3.1,2.9-4.4c0.3-1.3,1.7-2.7,2-2.9c0.1-2.8-0.7-20.7-0.7-20.7s-2.7,4.1-3.4,4.9c0.5-1.9,1.8-3.8,1.8-3.8l1.7-3
		l-0.1-1.8c0,0-7.5,11.5-8.3,12.6c-0.8,1.1-3.5,4.8-4.6,5.5c0.6-1.6,2.5-3.8,2.9-4.4c0.4-0.6,9.2-14.6,9.9-15.8c0.1-1.5,0-2.2,0-2.2
		l-7.9,13.3c0.8-2.4,7.2-14.3,7.8-15.2c0.2-0.9,0.2-0.9,0.2-0.9s-7.5,12.8-8.3,13.8c-0.8,1.1-3.4,5.2-4.4,5.5
		c1.7-2.8,10.7-17.8,11-22.4c-1.2,1.9-1.2,1.9-1.2,1.9s0.5-2.3,1-3.3c0.5-1,3.8-4.7,3.2-17.7c0-6.9-2.3-20.8-5.1-26.6
		c-2.4-5.6-5-9.6-5.8-10.3c-0.8-0.8-11.5-10-12.7-10.9c-1.2-0.9-16.2-11.8-17.3-12.6c-1.1-0.8-9.6-8.4-12.2-13.7
		c-1.8-3.3-2.4-4.9-2.4-4.9s-11.6,7.8-19.2,8.6c-5.7,1.4-11,1.9-14.7,1.8c-3.7-0.1-6.4,0.3-8.6,1.1c-2.1,0.8-15.9,6.7-21.5,11.5
		c-5.7,4.8-10.2,14.2-11.6,18.5c-1.4,4.3-0.9,13.8-0.8,14.7c1.6,0.5,5.9,2.7,7,3.6c0.9,0.7,1.3,1,2.3,1.2c1.1,0.2,5.1,2.2,5.9,2.9
		c0.9,0.7,4.2,2.3,5.3,3.5c1.1,1.2,1.6-0.4,3.4,1.4c1.9,1.8,5.7,4.1,6,4.7c0.4,0.6-0.1,1.3-1.6,0.8c-1.5-0.5-6-2.5-7.9-2.7
		c-1.9-0.2-3.8-1.4-4.8-1.8s-5.5-2.8-6.8-3.2s-5.5-2.5-7.2-4.4c0.3,1.2,1.9,7.5,1.9,7.5s1.3,2.6,2.8,2.5c-1.3-1.9-2.5-4-1.8-4
		c1.1,1.1,2.4,3.4,2.8,3.5c-0.7-1.7-0.1-1.7-0.1-1.7s1.5,2.2,2,2c-0.6-1.2-0.7-1.9-0.7-1.9s1.9,2.2,2.7,1.9
		c-0.6-0.9-1.3-2.1-0.9-2.4c1,1.1,2.2,3.2,3,3c-0.5-0.9-0.9-1.8-0.5-1.9c0.1,0,1.3,1.7,1.7,1.2c0.4-0.5,1,1.2,1.1,0.3
		c0.1-0.9,0.8-1.7,1.2-0.5s1.3,1.9,1.4,1.4c0.1-0.6,1.2,0.7,1.2-0.6c-0.2-0.6,1.1,0.7,1.1,0.7c0.5-0.4,1.2-0.4,1.2-0.4
		s0.1,0.9,1.1,0.8c0.9,0,1.9,0.8,2.4,0.8s1.9,0.2,2.8,0.8c0.9,0.6,4.4,2.2,6.8,5.9c0.5,1.2,0.5,1.7-1.5,1.9c-1-0.3-1.2-0.6-1.9-0.4
		c-0.8,0.2-1.8,0.5-2.1,0.9c-0.4,0.4-1.7,0.4-2,0.9c-0.4,0.5-0.7,0.3-1,1c-0.3,0.8-0.1,0.9,0.9,0.4c1.4,0,1.8,0,1.8,0
		s-2.2,1.1-3.3,1.2c-1.1,0.2-3.8,0.7-4.4,0.8c-0.6,0-1.1,0.7-1.3,0c0,0-3.1-0.1-3.4-0.1c-0.1,0.6-0.6,1.2-0.6,1.2v-1.4l-1.3-0.2
		l-0.8,1l0.1-1.3l-1.5-0.8l-1.4,1.9c0,0-0.2-0.9,0.4-2.2c-0.3-0.3-0.6-0.4-0.6-0.4S503.6,225.6,503.4,226.2z"/>
	<path fill="#F69874" d="M502.5,223.5c0,0-0.4-1.5-0.4-1.9c0.6-0.4,0.8-0.3,0.8-0.3l1.4,1.1C503.6,222.7,502.8,223.2,502.5,223.5z"
		/>
	<path fill="#F69874" d="M502.8,224.5c0,0,0.2-0.9,1.8-1.4c0.5,0.4,0.5,0.4,0.5,0.4s-1.6,1.6-1.9,2.1
		C503.1,225.2,502.8,224.5,502.8,224.5z"/>
	<path fill="#F69874" d="M504.3,221.6c0,0,0.8-0.5,1.6-0.3c0.1,0.2,0.2,0.3,0.2,0.3l-1.4,0.5C504.5,222,504.3,221.6,504.3,221.6z"/>
	<path fill="#F69874" d="M508.3,224.5c0,0-0.6-0.4-0.3-0.7c0.3-0.3,1.2-0.4,0.8,0.4C508.4,224.9,508.3,224.5,508.3,224.5z"/>
	<path fill="#F69874" d="M509.6,224.9l-0.5-0.3c0,0,1-0.3,0.9-0.2C509.8,224.5,509.6,224.9,509.6,224.9z"/>
	<path fill="#F69874" d="M511.4,225.3c0,0-1.1,0.2-1.3-0.3c0.4-0.4,0.9-1,1.1-0.9C511.5,224.6,511.4,225.3,511.4,225.3z"/>
	<path fill="#F69874" d="M512,225.5l0.2-1c0,0,0.7,0,0.9,0c0,0.4,0,1,0,1H512z"/>
	<path fill="#F69874" d="M513.9,225.5l0.3-1l1.3-0.1c0,0-0.1,1.4-0.6,1.3C514.4,225.6,513.9,225.5,513.9,225.5z"/>
	<path fill="#F69874" d="M515.9,225.3l0.4-0.9l0.7-0.3v1.3C517,225.3,516.5,225.6,515.9,225.3z"/>
	<path fill="#F69874" d="M517.5,225.3c0,0,0-0.9,0.5-1.3s0.7-0.3,0.7-0.3v1.2L517.5,225.3z"/>
	<path fill="#F69874" d="M519.3,225c0,0-0.5-1.1,0.5-1.5c1-0.4,1-0.4,1-0.4s-0.4,1.7-0.3,1.8C519.9,224.9,519.3,225,519.3,225z"/>
</g>
<g id="glare">
	<path fill="#FFFDF8" d="M412.4,533.8c0,0-0.3-2.2,1.8-0.9c2.1,1.3,3.9,3.4,3.9,3.4s1.4,2.1-1.2,1.8
		C414.4,537.9,413,535.9,412.4,533.8z"/>
	<path fill="#FFFDF8" d="M409.8,526.2c0,0,2.1,4.8-1.8,1.6c-4-6.5-3.2-11-3.9-14.9c-0.6-3.9-1.2-20.8-0.8-31.3
		c0.4-10.5,2.1-36.3,2.5-41.6c0.4-5.3,2.9-44.4,3.2-50.4c0.4-6,1.3-18.8,1.3-18.8s-0.1,28.9,0,30.4c0,2.9-2,42.4-2.2,46
		c-0.3,3.6-2.2,35.1-2.3,39.1c-0.1,4-0.8,18.2,1,30.5C407.1,518.9,409.8,526.2,409.8,526.2z"/>
	<path fill="#FFFDF8" d="M412,222.7c0,0-0.3,1.3,0.9,0.6c1.2-0.7,3.2-1.8,5.5-0.6s3.4,2,4.7,1.7c-2.1-1.4-5.8-4.1-9.4-2.9
		C413.1,222,412,222.7,412,222.7z"/>
	<path fill="#FFFDF8" d="M432.4,227.9c0,0,4.4,2.3,5.6,3c1.1,0.7,2.9,2.9,3.3,5.1c0.4,2.2,0.5,4.2,0.5,4.2s-0.7-0.1-1-1
		c-0.2-0.9-1.1-5.9-3.2-7.6C435.4,230,432.4,227.9,432.4,227.9z"/>
	<path fill="#FFFDF8" d="M382.2,243.2c0,0-1.7-5.3-1.4-7.1c0.3-1.8-0.8-1.4-1.2,0c-0.4,1.4,0.9,5.8,1.6,6.7
		C381.9,243.8,382.2,243.2,382.2,243.2z"/>
	<path fill="#FFFDF8" d="M387.2,231.3l7.2-4.1c0,0,3.2-1.8,5.5-0.2c2.3,1.5,4.4,3,4.4,3s2.3,1.9,3.6,0.9c-1.5-0.8-7.8-5.3-7.8-5.3
		s-2.5-1.9-5.9,0C390.7,227.4,384.6,232,387.2,231.3z"/>
	<path fill="#FFFDF8" d="M398.3,281c0,0-9.1-14-11-22.4c-0.3,1.4,2.5,10.2,4,13.1C392.7,274.6,397.8,281.6,398.3,281z"/>
	<path fill="#FFFDF8" d="M438.3,302.4c0,0-4-12-4.1-19c-0.1-7,1.5-8.7,2-9.2c-0.2,1.7-0.6,4.2-0.7,5.8c-0.1,1.6,0,6.5,0.7,10.5
		C437,294.6,439,302.6,438.3,302.4z"/>
	<path fill="#FFFDF8" d="M438.4,270.6c0,0-2.7,3.8-1.3-0.8c0.6-1.3,3.1-2.5,4.7-2.6C440.7,268.1,439.3,269.5,438.4,270.6z"/>
	<path fill="#FFFDF8" d="M402,337.7c0,0-1.2-6.4,0.9-11.7s4.2-7.4,4.7-8.2c-0.3,1.7-3.8,7.8-4.4,11.8
		C402.8,333.5,402,337.7,402,337.7z"/>
	<path fill="#FFFDF8" d="M448.4,232.7l7.7,7.5c0,0,2.6,2.2,2.7,4.7c0.1,2.5,0,5.5,0,5.5s-0.8-2.9-1-3.6c-0.2-0.8,0-3.3-2.5-5.7
		C452.9,238.6,448.7,233.1,448.4,232.7z"/>
	<path fill="#FFFDF8" d="M545,396.4c0,0,7.5,6.7,15.9,9.7c8.4,3,11.9,2.8,12.7,3C570.7,407.8,552.5,401.5,545,396.4z"/>
	<path fill="#FFFDF8" d="M666.7,393.8c0,0,0.7,1.7-0.7,2.6c-1.4,1-14.9,8.9-21.6,11.9C648.1,405.5,664,395.9,666.7,393.8z"/>
	<path fill="#FFFDF8" d="M671.1,392.5c0,0-3,0.7-1-1c2-1.7,3.4-1.4,2.5,0C672.3,392.1,671.1,392.5,671.1,392.5z"/>
	<path fill="#FFFDF8" d="M654.7,366.5l0.9,1.5c0,0-2.8,0.6-5.1,0.9c-2.3,0.4-7,0.3-10.1,0.6s-9.6-0.1-15.4,0.8
		c2.8-1,9.6-2.2,13.3-2.4C641.9,367.7,648.4,366.9,654.7,366.5z"/>
	<polygon fill="#FFFDF8" points="880.5,565.2 880.5,559.9 883.4,565.2 	"/>
	<path fill="#FFFDF8" d="M870.7,534.7c0,0-19.7-37.6-22.8-42.9c-3.1-6.8-38.6-73.7-39.4-75.1c-0.8-1.4-21.2-37.6-23-40.2
		c-1.8-2.5-10.7-18.1-11.6-19.4c-0.9-1.3-2.4-6.9,0.6-3.8s17.2,25.2,18.5,27.6s26.2,47.7,26.7,48.9c0.5,1.3,26,51.2,26.7,52.8
		C847.2,484.4,869.6,531.3,870.7,534.7z"/>
	<path fill="#FFFDF8" d="M751.9,328.9c0,0-1.5-1.4,0-0.9s8.4,5.4,11.7,8.8c3.3,3.4,4.7,5.1,5.1,5.9c0.4,0.9,1.7,4-0.8,4
		s-2.9-1.9-3.6-3.3C763.6,341.9,756.9,332.2,751.9,328.9z"/>
	<path fill="#FFFDF8" d="M506.9,198.4c0,0-9.6-3.8-10.1-4.2s-1.9-1.6,0.3-1.1C499.4,193.6,506.4,197.6,506.9,198.4z"/>
	<path fill="#FFFDF8" d="M528.3,212.7c0,0,1.2,1.3-0.6,1C526.9,213.4,526.3,211.6,528.3,212.7z"/>
	<path fill="#FFFDF8" d="M542.2,223.4c0,0-0.7-4.2,1.2-8.1c0.1-0.4,0.9-0.4,0.6,0.2C543.6,216.1,542.2,221.7,542.2,223.4z"/>
	<path fill="#FFFDF8" d="M534.5,227.1c0,0-0.2,2.2-0.6-0.5c-0.4-2.7-1.5-7.8-4.1-10.5c-0.7-0.8-0.5-1.4,0.8-0.3
		C531.9,216.8,534.1,220.9,534.5,227.1z"/>
	<path fill="#FFFDF8" d="M562,209.6c0,0,8.3-5.3,9.2-6.2c0.9-0.5,3.4-1,4.6-0.6c1.2,0.3,5.9,0.4,7.7-0.1c1.8-0.5,3.5-1.2,3.5-1.2
		s1.8-0.4,0.3,0.5c-1.1,0.4-5.1,2.5-8.6,2.3c-3.5-0.3-6.2-0.1-7.5,0.8C569.9,205.9,565.5,208.8,562,209.6z"/>
	<path fill="#FFFDF8" d="M578.3,198.1c0,0-2.3-1,0-1c2.3,0,4,0,4,0S580.5,198,578.3,198.1z"/>
	<path fill="#FFFDF8" d="M570.5,146.9c0,0-1.3-2.1,0.8-1.4c1.2,0.6,2.1,2.7,1.4,2.9C571.9,148.8,570.6,147.3,570.5,146.9z"/>
	<path fill="#FFFDF8" d="M574.6,150.6c0,0-1.4-2.3,0.6-0.5c1.9,1.8,7.1,6,8.1,6.7c1,0.6,9.2,6.6,10.3,7.7s7.9,7.2,8.8,8.2
		c0.9,1,6,6.4,6.9,7.3c-0.8-0.4-13.9-12-17.3-14.4S575.2,153,574.6,150.6z"/>
	<path fill="#FFFDF8" d="M620.1,207.6c0,0-0.5,2.7-1.4,0.6s-0.5-4.1,0.4-3.3C620,205.6,620.2,207.1,620.1,207.6z"/>
	<path fill="#FFFDF8" d="M619.5,212.7c0,0-0.1-3.3,0.7,0c0.8,3.3,1.7,8.4,1.7,12.1c0.1,3.6-0.1,7.5-1.2,11.2
		c-1.1,3.7-3.5,7.4-4.1,8.3c-0.6,0.8-6,9.3-6.7,10.8c1.4-3.9,6.4-12.9,6.8-14s4.4-8.8,3.9-15.4S619.5,212.9,619.5,212.7z"/>
	<path fill="#FFFDF8" d="M622.9,270.7c0,0,0.6-10.1,0.4-12.5c-0.2-2.3,0.4-1,0.6-0.3C624.2,258.6,625.7,262.9,622.9,270.7z"/>
	<path fill="#FFFDF8" d="M592,278.6c0,0-0.7-4.9-0.8-6.8c-0.1-1.9-0.8-6.9-2.7-8.9c-1.6-1.6-2.9-1.9-2.9-1.9s2.7,0,4.4,2.9
		c1.2,2.2,1.7,4.9,2,8.5C592.3,276,592,278.6,592,278.6z"/>
	<path fill="#FFFDF8" d="M614.5,281.4c0,0-10,13.9-11.6,15.9s-9.2,10.5-11.8,12.5c-2.7,2-7.7,5.8-12.3,7.1c-4.5,1.3-5.5-1.3-2.2-1.7
		c3.2-0.4,6.9-1.5,9.9-4c3.1-2.5,6.2-4.7,12-11.4C604.4,293.3,614.5,281.4,614.5,281.4z"/>
	<path fill="#FFFDF8" d="M572.4,315.8c0,0,2.7,1.2,0,1.5c-1.6,0-3.8-0.8-4.9-1.5c-1.1-0.7-0.5-1.4,1.2-0.8S571.2,315.6,572.4,315.8z
		"/>
	<path fill="#FFFDF8" d="M533.2,252c0,0,0.5,1.2,0,3.4c-0.5,2.1-0.8,4.4,1.3,4.7s8.3,0,8.3,0s-4.1,1.4-6.6,1.6
		c-2.1,0.3-5.3,0.5-5.1-2.9C531.2,255.5,532.8,252.7,533.2,252z"/>
	<path fill="#FFFDF8" d="M548.8,258.3c0,0-1.9,0.1-0.5-0.6c1.5-0.8,3.2-0.7,2.7-0.4S549.3,258.3,548.8,258.3z"/>
	<path fill="#FFFDF8" d="M540.4,276.2c0,0,2.7-0.6,3.6-1.1s4.1-1.4,5.4,0c0.3,0.6-0.7,0.6-1.1,0.5c-0.4-0.1-2-0.2-3.4,0.3
		S540.1,276.8,540.4,276.2z"/>
	<path fill="#FFFDF8" d="M555.5,274.6c0,0-1.8-0.2-0.8-0.9C555.5,273,556.5,273.6,555.5,274.6z"/>
	<path fill="#FFFDF8" d="M558.3,272.9c0,0-1.7-0.2-0.5-0.6c1.2-0.5,3.4-0.7,4.2-0.5s1,0.4-0.3,0.6
		C560.3,272.5,558.3,272.9,558.3,272.9z"/>
	<path fill="#FFFDF8" d="M577.8,289.4c0,0-1.4,4-2.1,5.1c-0.8,1.1-1.4,1.1-0.6-0.5C575.8,292.5,577.5,289.8,577.8,289.4z"/>
	<path fill="#FFFDF8" d="M566.6,301.4c0,0,1.4,1,0.3,1.5s-2.3-0.5-1.6-1.1S566.6,301.4,566.6,301.4z"/>
	<path fill="#FFFDF8" d="M562.7,301.8c0,0,2.5,0.2,0.3,1.2c-0.8,0.3-3.1,0.1-4.2-0.6c-1.1-0.7-5.3-4.1-7.2-10.1
		C553.1,294.6,558.7,303.3,562.7,301.8z"/>
</g>
<g id="left-eye">
	<g>
		<path fill="#FFFFFF" d="M510.2,221.6c0,0,0.5,0.8,0.9,1c-0.9,0-3.8-1.4-4.5-2.3c0.9,0.3,1.4,0,1.4,0s-2.4-1.3-2.9-3.7
			c0.6,0.3,0.9,0.5,0.9,0.5s-0.1-2.9,2.5-3.6c2.6-0.7,4.3-0.5,4.7-0.5s1.1,0,0.6,0.8s-1.2,4.4,0.9,6.3c1.2,1.1,3.2,1.7,4,1.7
			s1,0.3-0.3,0.6c-1.3,0.3-4.5,0.4-5.6,0C512.3,222.4,510.6,221.8,510.2,221.6z"/>
		<path fill="#FFFFFF" d="M522.3,221.4c0,0,2.9-2,3.1-4.2c0-0.5,0.2-1,1-0.5c0.7,0.5,1.9,1.6,1.6,2.3c0.1,0.4,0,0.5,0.5,0.4
			c0.4-0.1,1.3,0.7,0.4,1.2c-0.4,0.2-1.1,0.2-0.9-0.5s-0.4-0.3-0.8,0C526.7,220.3,525.2,220.9,522.3,221.4z"/>
		<path fill="#F5DDAD" d="M507.1,216.4c0,0,1.4-1.8,4.7-1.7c0,2.8,0.5,6.4,2.5,7.7c0.5,0.5,3,0.7,5.1,0c-1.6-0.6-4.9,0-5.8-4
			c-0.7-3.4,0.3-4.3,0.3-4.6c0.1-0.3,0.2-0.7-0.8-0.7c-1.1,0-4.9,0.4-6,2.2C506.7,216.2,507.1,216.4,507.1,216.4z"/>
		<path fill="#F5DDAD" d="M524.1,220.5c0,0,1.7-2,1.7-3.2c0.9,0.3,1.9,0.9,1.9,1.2c-0.3,0-0.4,0.2-0.4,0.2s-0.4-0.5-0.7,0
			C526.2,219.2,525.1,220.9,524.1,220.5z"/>
		<path fill="#703821" d="M514.5,219.4c0,0-1.1-2.4-0.2-4.3c0.5-0.9,1.9-2.1,1.6-0.4c-0.4,1.7,1.2,3.8,2.3,3.8c1,0,2.6-0.2,3.2-1.2
			c0.5-1,0.6-1.8,0.3-2.3c0.5,0.1,1.2,0.4,1.9,1.7c0.5,0.9-0.7,3.9-2.7,4.7C519,222,515.6,221.6,514.5,219.4z"/>
		<path fill="#FFFFFF" d="M515.2,220.1c0,0-0.7-0.7,0-1.4c0.7-0.7,0.9-0.6,1.7,0s1,1.4,0.4,1.8C516.8,221,515.5,220.8,515.2,220.1z"
			/>
		<path fill="#FFFFFF" d="M517.2,216.1c0,0-0.5,0-0.6-0.8s-0.1-0.6-0.5-0.7c-0.3-0.1-0.1-1,1.1-0.7
			C518.5,214.1,517.9,215.4,517.2,216.1z"/>
	</g>
</g>
<g id="right-eye">
	<path fill="#040208" d="M525.7,214.2c0,0,4.9,3.4,6.2,8.9s1.5,7.9,1.9,8.1c0.3-1.3-0.5-7.3-1.2-9.5
		C531.7,219.5,528.1,213.9,525.7,214.2z"/>
	<path fill="#040208" d="M546.2,214.2c0,0-1.4,0.9-2.2,0s-1.9-4-1.7-5.6c0.4-0.1,0.5,0.5,0.7,1.1s0.6,1.4,0.8-0.1s0.5-3,0.8-2.5
		c0.4,0.5-0.2,2.7,0.3,1.5s2.1-3.5,2.6-4.2c0.5-0.7,1-0.9,0.6,0c-0.4,0.9-0.8,1.6-0.8,1.6s-0.4,1.8,1,0.3c1.1-1.6,2.6-2.7,2.1-1.8
		c-0.6,0.6-1.5,2,0.1,1.2c1.3-1,2.7-1.5,2.1-0.7c-0.7,0.7-0.3,1,0.7,0.4c1-0.6,2.3-0.9,2.3-0.9s-1,1.2,0.6,0.6s3.1-1.2,3.8-1.3
		c0.6-0.1,3.6-0.6,4.4-1.2s4.9-2.8,5.7-3.1c0.8-0.3,2.9-0.4,4-0.4c1.1,0,5.6,0,6.3,0c0.7,0,2-0.3,2.9-0.5c0.9-0.3,5.7-0.4,5.7-0.4
		s-2.8,0.8,0.5,0.6c2.9-0.1,2.6,0.6,2.6,0.6s-1.9,0.3-3.1,0.5c-1.1,0.3-4.5,0.8-5.6,1.1s-2.3,0.6-2.3,0.6l1.7,0.5l-3.1,0.3l-4.3,0.1
		c0,0-3.3,0.1-4.1,1c-0.8,0.8-7,5-10.9,5.9s-10.3,3.2-10.3,3.2S547.3,212.7,546.2,214.2z"/>
	<path fill="#040208" d="M542.7,225.7c0,0,0.3-9.2,2.2-10.4c0.3,0,0.3,0.5,0.3,0.5S543.9,217.9,542.7,225.7z"/>
	<path fill="#040208" d="M544.4,220.8c0,0,0.3-3.9,1.2-4.3c0.1,0.6,0,1.3,0,1.3S544.3,221.7,544.4,220.8z"/>
	<path fill="#040208" d="M528,223.8c0,0-1.4,0.8-1.9,0.6C525.7,224.1,527.4,222.2,528,223.8z"/>
	<path fill="#040208" d="M530.2,222.8c0,0-1.9,0.3-1.1-0.4C529.9,221.7,531.2,221.7,530.2,222.8z"/>
	<path fill="#040208" d="M552.9,223.8c0,0,0.3-1.1,0.6,0.3C553.3,225,552.6,226.3,552.9,223.8z"/>
	<path fill="#040208" d="M552.5,220.5c0,0-0.9,0.4,0-0.7c0.9-1.2,2-2.2,2.7-2.6c-0.4-0.1-3.8-1-4.7-1.5c0.5-0.3,4.9,1,5.7,0.7
		c0.8-0.3,2.4-0.7,3.2-0.7C559.4,216,556.4,216.1,552.5,220.5z"/>
	<path fill="#040208" d="M570.5,213.8c0,0,6.3-0.9,7.1-1.1c0.8-0.2,0.8,0.4,0.8,0.4s-7.7,1.4-9.4,1.5c0.1-0.4,0.1-0.4,0.1-0.4
		L570.5,213.8z"/>
	<path fill="#040208" d="M565.8,215.7c0,0,10.5-0.7,12.2-1.5c-0.6-0.1-6.1,0.4-6.1,0.4l-6.1,0.4V215.7z"/>
	<path fill="#040208" d="M554.9,221.4c0,0-1.1,0.2-0.3-0.8c0.8-0.9,3.8-3.4,7-3.8c3.2-0.4,4.8-0.7,6.8-0.7c2,0,5.6-0.2,6.8-0.3
		c1.2-0.2,8.4-1,10.3-3.1c1.8-1.4,2.4-1.8,2.4-1.8l0.5,0.3l-2.5,2l0.8,0.3c0,0-1.9,1.6-3.1,1.9c1.2,0.2,3.6-0.9,4.4-1.4
		c0.7-0.5,3.9-3.4,3.9-3.4l0.3,0.5c0,0-3.5,3.7-6,5.1c0.5,0.6,2.9-1,3.4-1.5c0.5,0.1,0.5,0.4,0.5,0.4s-1.1,1.2-1.8,1.5
		c0.9-0.1,2.3-0.7,2.7-1.2c0.3,0,0.4,0.5,0.4,0.5s-3.3,2.3-5.1,3c-1.6,0.6-2.5,0.8-2.5,0.8h1.6c0,0,0.3,0.3-2.7,1l1,0.1l-2.3,0.2
		l-1.5,0.1l2,0.5c0,0-5.4,0.1-6.8,0c0.5,0.7,0.7,1,0.7,1s-4.6-0.8-6.4-1.6c-0.6-0.1-2.6-0.1-0.7,0.6c0.9,0.5,0.9,0.5,0.9,0.5
		s-4.1-0.3-6.5-2.4c0,0-1.3-0.7,0.4,1.4c0,0.2-1.9-0.8-2.7-1.4c-0.2-0.2-1.6-1.1-0.8,0c0.8,1.1,0.8,1.4,0.8,1.4s-0.6-0.2-1.3-1.1
		c-0.3-0.3-1.1-0.5-1.3,0.2c-0.3,0.6-0.8,0.9-0.8,0.9s-0.5-0.7-0.9-0.5C555.8,220.7,555.1,220.8,554.9,221.4z"/>
	<path fill="#040208" d="M591.6,213.2c0,0-1.1,0.3,0-0.8c1.1-1,3.5-4.2,3.5-4.2S595,209.9,591.6,213.2z"/>
	<path fill="#040208" d="M552.8,215.2h2.1v0.5C554.9,215.7,551.9,215.8,552.8,215.2z"/>
</g>
<g id="nose">
	<path d="M539.1,275.1c0,0-2.7,0.2-0.5,2.3c2.2,2.1,4,2.8,5.3,4.4c2.2,1.9,2.3,4.2,3.7,6.8c0,0,2.5,8.3,4.3,10.3
		c1.8,1.9,3.3,4,7,4.7c-1.1,0.5-3.2,1,0.5,1c3.7,0,6.1,0.2,8.7-0.7s6.4-2.1,7-2.7c-0.6,0-0.6,0-0.6,0l-2.1,0.5l2.1-2l-1.5,0.2
		c0,0,4.5-4.7,6.6-10.1c2.1-5.4,3.8-10.1,4.1-10.7s1-1.4,1.2-2.6c0.2-1.3,0.6-4.9,0-6.1c-0.6-1.2-2.2-2.9-6.6-2.3
		c-4.4,0.6-6.1,1.3-7.9,1.4c0,0-1.8,0.4-4,0.6c-2.2,0.2-5,0.4-5.8,0.5c-0.8,0.1-4,0.3-6,1.7c-2,1.3-2.2,1.7-2.2,1.7
		s-0.8,0.5-1.7,0.1c-0.8-0.5-2.1-1.1-4.3-0.7C544.2,273.8,539.1,275.1,539.1,275.1z"/>
	<path d="M531.9,252.2l-2.8,3.5v3.4c0,0-0.4,4.8,3.4,6.2c3.8,1.4,4.5,1.4,6,1.3s6.9-1.1,7.6,0c0.7,1.1,1.5,2.5,1.5,2.5
		s0.9,0.3,0.4-1.1c-0.3-0.4,0.1-1.1,0.9-0.3c0.8,0.8,2.4,2.3,2.6,3.2c0.2,0.8-0.3,1.4-1.4,0.8c-1.1-0.6-1.2,0.3-0.8,0.6
		s2.7,1.3,3.1,0.2c0.4-1.1,0.3-2.2-0.5-3.3s-3.8-5.2-7.6-4.7c-3.6,0.3-4.8,0.2-6.6-0.2c-1.7-0.4-3.1-1-0.3-1.2
		c2.8-0.2,1.8-1,0.6-0.8s-4.3,0.3-4.9,0C532.6,262,529.2,261.6,531.9,252.2z"/>
	<path d="M553.2,265.7c0,0,0-1.6-0.5-1.8c1.3-0.3,5.3-0.3,5.7-3.4c0.6-0.1,1.1,0.4,0.8,1.1s-1.6,1.9-2.7,2.2S554.2,264,553.2,265.7z
		"/>
	<path d="M550.5,263c0,0,1.4,0.4,0,0.7c-1.4,0.3-4.3-0.9-2.4-2.3c1.9-1.4,5.3-1,5.9-1c0.6,0,1.8,0.4,1.9,0.9
		c0.1,0.5-0.3,1.3-1.9,1.3c-1.6,0-2.7-0.8-3.4-0.6s-2.5,0.4-1.1,1C549.5,263.1,550.5,263,550.5,263z"/>
	<path d="M546.2,261c0,0,1.7-2.3,4.9-2.7c1.3-0.3,1.7,0.7,0.6,0.8c-1.1,0.1-2.9,0.8-3.5,1.2C547.6,260.7,545.9,261.4,546.2,261z"/>
	<path d="M581.6,260.4c0,0-1.4-1.6,0.8-0.7c2.1,0.9,6.9,3.7,7.8,10s0.7,12.7,0.7,12.7s-0.6-8.8-1.6-11.8
		C588.3,267.7,589,264.5,581.6,260.4z"/>
</g>
<g id="teeth">
	<path fill="#FFFFFE" d="M577.4,269.8c0,0,3.4-0.6,1.9,0.6c-1.4,1.2-3.4,2.9-4.1,3.5c-0.7,0.6-6.9,3.5-7.7,3.8
		c-0.7,0.3-2.3,0.5-2.7,0.6s-1.7,1.2-2.7,1.5c-1,0.3-3.9,0.9-5,0.9c-1.1,0-1.7,0.2-2.3,0.4c-0.6,0.2-4,0.2-4.4,0
		c-0.4-0.2-1.5-1.3-2-1.2s-3.1-0.4-2-1c1.1-0.6,3.2-0.3,4.1-0.3c1,0,4.8-0.3,6.2-0.9c1.4-0.6,4.6-1.6,5.2-1.9
		c0.6-0.3,2.5-0.9,3.2-1.1c0.7-0.2,4.7-1.7,5.7-2.1C571.9,272.1,576.7,269.9,577.4,269.8z"/>
</g>
<g id="mouth">
	<path fill="#DC262F" d="M582.3,277.6c0,0,1.7-4.1,1.8-5c0-0.3,0.4-0.1,0.2,1c-0.1,1.1-0.8,3.9-1,4.6c-0.2,0.7-3,8.1-3.3,8.6
		c-0.3,0.5-2.5,5.8-2.8,6.3c-0.3,0.5-3.3,5.5-4.2,6.2c-1,0.7-1.8,1-2.6,1.7s-2.3,2.1-4.6,2.4c-2.2,0.2-5.6,0.4-7.6-0.8
		c-2-1.2-3.9-3.5-4.7-4.7c0.2,0.9,1.2,2.4,1.6,2.9c0.3,0.5-1.9-1.2-3.2-3.4s-3.5-8.2-3.7-9.1c-0.2-0.8-1.4-3.9-2.6-5.6
		c-0.7-1.1,0.1-1.5,0.8-1c0.4,0.5,1.3,2,1.3,2l-0.5-2.1c0,0,0.2-0.8,1.5,0c0.5,0.9,3.9,6.5,4.7,8.3c0.3,0.4,0.7,0,1.2,0.6
		s2.7,2.8,2.7,2.8s0.2,0.5-0.4,0.8s0,0.7,0.8,0.4c0.7-0.3,1.6-0.8,2.6-0.8c1.1,0,3.5-0.1,3.8-0.3s0.2,0.4,0,0.8
		c-0.3,0.3-0.7,1.3-0.8,1.9c0,0.6,1.3-1.6,1.9-2.7c0.3-0.9,1.4-1.3,2-1.6c0.6-0.3,4-2.7,5-3.8s5.3-4.5,9.5-12.4
		c1.4-2.9,1.4-2.9,1.4-2.9S583.5,272.8,582.3,277.6z"/>
	<path fill="#DC262F" d="M553.3,285.3c0,0-0.6-2.2,0.4-1c0.9,1.4,1.3,1.6,1.2,1c-0.1-0.6-0.5-1.2-0.5-1.2s-0.3-0.7,0.8-0.7
		s7.6,0,13.2-2.9c1.2-0.6,1.8-0.7,1.7,0c-0.1,0.6-0.5,1.6-0.2,2.4c0.3-1.5,1.4-3.8,2.5-4.3c1.1-0.5,2.5-0.8,3.9-0.5
		c1.4,0.3,1.9,1.2,1.2,2.1c-0.7,0.9-3.8,5.3-5.9,7.3s-4.5,3.4-5,3.6c-0.5,0.1-1.6,0.1-2.1,1c-0.7,0.6-5.5,1.3-7.2-0.7
		C555.4,289.3,553.5,285.8,553.3,285.3z"/>
	<path fill="#DC262F" d="M539.6,277.2c0,0-1.2-1.3,0.4-1.7c1.6-0.4,2.7-0.4,3.9-0.8c1.2-0.4,4.4-1.3,5.6-0.6s2.2,1.5,3.2,0.6
		c1-0.9,3.3-3,5.3-3.2s8-0.6,9.4-0.8c1.4-0.1,5.4-0.8,6.6-1c1.2-0.2,1.8,0,0.8,0.6s-6.2,2.7-7.4,3.1s-1.8,0.9-3.5,1
		s-1.5,0.9-3.2,1.1s-2,0.3-3.3,1.1c-1.3,0.7-2.3,1.8-7,1.7c-1.5,0-1.4-0.6-4,0S541,278.9,539.6,277.2z"/>
</g>
<g id="hair">
	<path fill="#F3A95E" d="M449.9,323.4l0.5-4.5c0,0,8.7-5.5,12.2-10.2c3.5-4.7,6.5-8.7,6.5-8.7s0.3,5.8,1,6.5
		c0.3-1.7-0.4-9.3,1.8-11.3c1.3,7.5,2.2,8.8,2.2,8.8l-0.8-11l0.8-1.7c0,0,3.2,10.1,5.5,13.4c2.2,3.2,11,16.4,12.5,18.7
		s5.7,11,6.1,20.8c0.4,5.7-0.7,13.1-3.6,17c-2.9,3.9-9,9-14.2,11.8c-5.2,2.9-20.7,10.5-20.7,10.5s9.7-3.1,11.6-4
		c1.8-0.9,17.5-8.6,21.6-13s8.4-11.6,7.3-22.1c-1.2-10.5-3.8-17.8-6.4-21.7c-2.6-3.9-10-14.8-11.6-17.4c-1.6-2.6-6.4-10.9-6.1-15.6
		c0.4-0.4,0.9-1.4,0.9-1.4s4.9,10.5,10.4,17.1c5.5,6.6,17.9,19.9,17.9,19.9l-6.9-9.2c0,0-12.1-15.3-14.8-20
		c-2.7-4.7-10.8-18.1-12.6-28.7c2.1,5.5,11.8,23.1,20.3,33.8c-3.9-7.5-15-21.6-22.1-41.9c-0.4-0.8-0.8-2.5,0-3.5
		c0.8-1,1.1-2.3,1.1-2.3s1.1-2.3,1.6,0s0.7,2.9,0.7,2.9v-3.2c0,0,6.2,12.5,7.3,14.8c1.1,2.3,10.7,20.7,10.7,20.7
		s-13.1-30.1-17.3-37.7c-0.1-0.2-0.7-1.2,0-3.4c0.6-2.9,1.1-7.1,1.1-7.1s8.8,22.9,11.2,26.4c-1-3.6-10.2-27.5-10.2-27.5l0.2-1.5
		l7.5,7.3l2.3,7.9l-1.2-6.8c0,0,7.6,6.2,16.8,8.7c0.3,6.2,4.2,17.5,7.5,21.2c-0.8-2.3-6.2-13.2-7-21c1.4,0.4,4.5,1.2,4.5,1.2
		l1.6,3.4l-0.8-3.2l5.2,1.1c0,0,13.5,17.5,16.4,21c2.9,3.5,8.5,11.2,9.5,12.8s4.3,7.8,4.4,9c0.1,1.2,0,4.7,0,5.1
		c-1.8-2.6-3.3-6.4-4.7-8.3c-1.4-1.8-9-11.9-10.7-14c-1.7-2.1-9.9-12.3-9.9-12.3s-0.3,0.3,0.1,1.2s14,18.3,14.7,19.1s6.9,9,9.6,14.7
		c1,1.7,1.4,2.8,1.5,4.2c0.1,1.4,0,3.7,0,3.7s-1.6-3.2-2-4.2c-0.5-1-3.5-7-4.5-8.3c-1-1.4-5.6-8-7.5-9.9c-1.9-1.9-11-12-15.8-20.1
		c0.5,1.5,0.5,1.8,0.5,1.8s4.2,6.9,5.3,8.2s8.4,10,9,10.8c0.6,0.8,8.6,10.4,9.7,13c1.1,2.6,3.8,8.2,3.8,8.2s1.4,3.5,1.3,5.6
		c-0.1,2.1,0.3,8.2,0.3,8.2s-0.5,2.7-1.2,0.3s-2.1-8.4-4.8-13.5c-2.7-5.1-8-12.9-9.7-15.1c-1.7-2.2-14.9-17.4-14.9-17.4
		s-0.8-0.1,0.5,1.3c1.2,1.4,12.7,15.3,13.5,16.7c0.8,1.4,6.3,9.1,8.2,12.9c1.9,3.8,4.3,8.3,6.3,14.5c0.5,1.3,1.7,6.8,1.6,9.7
		c0.1,0.7-0.6,1.4-1-0.1c-0.3-1.4-2.9-9.5-5.1-13.4c-2.2-3.9-6.8-11.3-8.6-13.5c-1.8-2.2-13.9-17.1-15.5-17.9
		c1.3,2.3,1.9,2.9,1.9,2.9s11.6,14.9,13,16.7s10.7,18.3,11.4,19.8c0.6,1.5,3.1,7.3,3.1,8.3c0,1,0.1,5.7-0.1,6.6
		c-0.1,0.9-0.9,1.6-1.2-0.3c-0.3-1.8-3.8-12-8-16.6c0.8,1.7,6.9,12.2,7.5,17.5c0.6,3.7,0.8,4.7-0.4,7.2c-1.2,2.5-2.7,4.6-2.7,4.6
		s0.1-2.6,0.2-4.4c0.1-1.8-0.1-7-0.8-9.5s-5.1-11.4-6.3-13.1c-1.2-1.7-8.1-11-9.5-12.6c-1.4-1.6-9.4-12.6-9.9-13.2
		c-0.5-0.5-7.5-11.7-8.4-13.3c-1-1.6-9.1-18.6-9.9-20.3c0.5,1.9,4.5,12,4.9,12.7c0.3,0.7,6,12.2,7.7,14.8
		c1.7,2.6,8.2,12.1,13.1,18.1c4.9,6,10,13.4,10.6,14.4c0.6,1,5.8,10.1,6.6,13.2c0.8,3.1,1.6,9.3,0.2,14.1c-0.6,1.2-2.1,3.1-2.1,3.1
		s0.3-2.1,0.2-3.1c-0.1-1-0.5-6-1.7-7.7c-1.2-1.7-4.2-7.1-4.5-7.8s-4.4-9.6-4.7-10.9s-4.8-9.1-5.5-10.5s-8.3-10.3-9.6-12
		c-1.4-1.6-10.7-11.5-11.4-12.1c1.1,1.8,10.6,13.4,11.4,14.4s8.3,10.1,9.3,12c1,1.9,5.8,12,6.2,13s0.1,1.6-0.8,0.5
		s-17.1-19.4-17.9-20.1c1.8,2.9,14.8,18.9,16,20.2s8.3,10.1,8.6,10.9s4.9,7.7,2.7,12.7c-0.6,1.6-2.1,4.5-5.6,6.2
		c0.5-2.1,1.6-6.4,1.4-8.4c-0.3-2-1.6-6.3-2.6-7.2c1.1,4.5,2.3,9-0.3,15.2c-1.2,2.8-3.2,3.2-4.2,3.8c-1,0.6-8.8,3.9-8.8,3.9
		s7-5.5,8.3-8.8s1.5-9.6-1.8-13.8s-5.9-6.9-5.9-6.9l1.7,3.1c0,0,5.7,7.8,5.4,12.7c-0.3,4.6-3,8.3-6,10.7c-3.1,2.4-9.5,7.2-15.8,8.8
		c2.9-2,6.8-6.8,8.6-9.2c1.8-2.4,4.7-11,4.4-15.5s-1.5-10.6-3.6-13.9c-2.1-3.3-5.7-8.3-5.7-8.3s5.8,11.7,6.4,14.4
		c0.6,2.7,2.1,9.4,0.4,14.7c-1.7,5.3-3.4,9.8-9.4,14.6c-6,4.8-15.7,9.5-16.8,10.5c-1,1-21.2,13.2-23.7,15.3
		c-2.5,2.1-6.4,8.6-6.7,9.4c0-1.7,0.2-2.4,0.2-2.4s5.3-8.3,8.9-11.2c3.6-2.9,12.9-8.7,14.4-9.6c1.4-0.8,12-7.6,13.6-10.5
		c-2.3,1.4-16.5,10.5-18.1,11.4s-10.2,6.6-11.2,7.8c-1,1.2-8.1,9.7-8.4,10.5c-0.2-5.3-0.2-7.5-0.2-7.5s3.4-4.7,2.9-5.7
		c-1.4,1.5-3.1,3.6-3.3,4.2c0-2.6-0.4-9-0.4-9s-0.1-4.2,3.1-8.1s7.3-8.1,12.2-11c4.9-2.9,14.6-8.8,17-11c2.4-2.1,7.7-7.3,8.6-22.5
		c-1.8,5.9-4.9,17.7-10.8,22c-5.8,4.2-15.4,10-17,11.1c-1.6,1.1-9.9,6.6-13.3,14.5c-0.1,0-0.6-0.1-0.6-1.3c-0.1-1.2-0.6-6.2-0.6-6.2
		s-0.1-1.9,1.2-3.5s8.6-8.7,12.5-11.9c-1.8,0.5-10.6,6.9-13.7,11.1c-0.5-3.5-0.6-8.1-0.6-8.1s-0.3-1.3,0.8-2.5
		c1-1.2,6.2-7.2,11.4-9.6s8.1-3.9,10.7-4.9s7.9-3.1,9.3-4.3c1.4-1.2,6.1-5.2,6.3-9.6c0.2-4.4-1.6-9.7-2.7-11.7s-6.4-11.3-6.4-11.3
		s0.5,2.4,1.2,3.8c0.7,1.4,5.3,11.9,5.3,11.9s3.1,8.5-2.3,13.5c-2.9,3-4.2,3.4-6.1,4.2c-1.9,0.8-12.2,4.9-13.1,5.5
		c-1,0.5-9.5,5-14.4,11.4c-0.2-4.5,0-5.6,0-5.6s0.7-2.5,4.6-4.8c3.9-2.3,5.8-3.1,9.6-4.8c3.8-1.7,10.3-5.1,12.8-8
		c2.5-2.9,6.3-6.2,1.8-18.2c0.2,3.8,1.9,12-1.6,15.7c-3.5,3.7-5.3,5.5-10.5,7.6c-5.2,2.1-15.1,7-17.3,10.3c-0.1-2.3,0-3.2,0-3.2
		s0.1-2.3,2.1-3.5s11.4-7.9,12.5-9.7c-2.1,1.3-13.3,8.3-14.3,9.9c-0.2-1.9-0.4-3.1-0.4-3.1s0.9-2.1,1.8-2.9c0.9-0.8,6.8-7.6,6.8-7.6
		s-7,5.9-8,7.3c-0.1-1.2-0.1-2.5-0.1-2.5s0.3-2,1.2-2.7c0.8-1,6.3-9.2,7.4-10.3c1.1-1.1,9.4-11.9,10.5-12.7
		c-2.2,1.4-16.2,18.4-18.3,20.9c0-2.4,0.6-5.8,0.6-5.8s0.8-2.5,1.8-3.3c1.4-1.5,6-8.1,6-8.1L449.9,323.4z"/>
	<path fill="#F3A95E" d="M498.3,232c0,0,6.9,19.7,7.2,20.2c0.3,0.5,5.2,1.2,5.3,1.2c-0.7-1.5-7.5-15.8-9-20.8
		C499.1,232.2,498.3,232,498.3,232z"/>
	<path fill="#F3A95E" d="M504.5,252.2l-8.1-20.6c0,0-7.3-1.5-8.1-1.7c-0.9-0.2-1.7-0.3-1.7-0.3s-6.3-1.2-7.1-1.1
		c-0.8,0.1-2.6,0.6-1.3,4.6c1.7,2.8,1.9,3.2,1.9,3.2s3,4.7,7.4,8.1s7.9,4.5,8.6,4.7c0.6,0.3,3.3,1.2,3.3,1.2s-0.8-3.3-1.3-5
		c0.5-0.1,2,5.2,2.3,5.3C501.4,251.1,504.5,252.2,504.5,252.2z"/>
	<path fill="none" stroke="#000000" stroke-width="0.3899" stroke-miterlimit="10" d="M463.8,227.9c0,0-0.8,1.2-1.2,0
		c-0.1-0.9-0.5-1.2,0.6-1.5c0.9-0.3,1.7-0.7,1.7-0.7s0.8,0.2,0,1.1S463.8,227.9,463.8,227.9z"/>
	<path fill="#F3A95E" d="M473.7,218.4c0,0-0.3-2.5-2.1-3.9c0.1-3.1,1.4-15.4,1.8-19.1s1.5-14.3,5.8-27c-4.5,11.8-4.9,14.9-5.4,17.1
		s-2.1,14-2.9,28.3c-1.9,0.1-4.6,0.1-4.6,0.1s3-21.4,4.1-26.6c-2.9,12.4-4.3,20.1-5.1,26.7c-1,0.5-3.9,1.7-4.1,1.6
		c-0.1-3.5-0.1-11,2-20.9s7-23.3,7.6-25c0.6-1.7,5.6-13.7,8.8-18.2c3.2-4.5,8.1-10.7,15.1-14.7c7-4,10.5-3.9,12.5-4
		c1.9-0.1,8.8,0.8,10.1,1.4c1.3,0.5,5.3,2.1,5.8,2.5c0.5,0.3,1.9,1.1-0.3,0.9c-2.3-0.2-4.9-1.2-6.6-1.4c-1.6-0.2-7.6-1.4-13.5,0.1
		c-5.8,1.5-10.9,5.4-11.6,5.6c1,0.1,1.6-0.3,2.1-0.5c0.5-0.2,7.3-4.2,11.8-4.4s9.2-0.3,16,1c6.8,1.4,5.5,3.1,4.2,2.6
		c-1.4-0.5-7.1-1.8-8.1-1.9c-1-0.1-7.9-0.5-12.9,0.7s-9.8,2.9-14.1,6.8c-4.3,3.9-12.3,15.7-15.5,22.3c1.6-2,9.1-13.6,14.9-19.8
		c5.9-6.2,13.1-8.1,18.3-8.5c5.1-0.5,10.3-0.3,16.7,1.2c3.2,0.9,5.2,2.2,3.1,2.7c-1.8,0.1-4.5,0.3-7-0.2c-2.5-0.5-9-1-14,0.7
		s-11.2,7.8-11.2,8.7c1.4-0.8,1.8-1.2,2.6-1.8s7-5.8,12.5-6.6c5.5-0.7,8.5-0.7,9.2-0.6s2.7,0.4,0.4,0.8c-2.3,0.5-13.3,3.4-19.9,10.6
		c-2.7,2.3-7.5,10.9-8.1,12.8c-0.6,1.9-4.7,12.3-6.1,18.9c-1.4,6.6-2.2,17.6,2.1,29.3c-0.5-4-2.5-12.5-2.3-18.3s1.1-10.2,1.4-10.9
		c0.2,2-0.3,11.6,0.5,16s5.6,20.7,7,23.2c-2.8-0.4-2.8-0.4-2.8-0.4l-0.9-2.2v2.1l-8.8-1.4c0,0,1.8-4.3-1-5.3
		c-2.3-1.2-2.1-1.1-3.1-1.3c1.4-1.8,4.7-6.8,4.5-8c-1.3,1.4-3.4,5.3-4.5,5.8c0,0,3.3-6.9,3.9-17.3c-1.9,8.3-4.1,17.4-6.1,18.9
		c-0.5,0.6-1.4,0.9-0.6-1.1s3.5-11.3,3.8-15.8c0.3-4.5,1.8-16.8,2.5-19.4c0.6-2.5,6.4-20.9,7.8-22.5c-4.3,7.1-6.3,14-7.5,17.2
		c-1.2,3.1-2.4,10.2-2.7,13.1c-0.3,2.9-1.4,15.8-2.2,18.9C476.2,211.3,474.5,217.6,473.7,218.4z"/>
	<path fill="#F3A95E" d="M496.4,227l-5-16.6c0,0-1.1-3.4,0-3.8c1.4,5.9,4,14.8,4.2,15.1c-0.2-3-0.5-3.7-0.5-3.7s0.3-0.5,1.3-0.2
		c0.5,0.3,0.5,0.3,0.5,0.3l2.2,9.4L496.4,227z"/>
	<path fill="#F3A95E" d="M499.6,227.5c0,0-0.7-2.5,0-2.2c0.7,0.3,0.6-0.1,0.8,0.8c0.1,0.8,0,1.6,0,1.6L499.6,227.5z"/>
	<polygon fill="#F3A95E" points="496.7,216.7 495,217 494.6,215.2 496.4,215.2 	"/>
	<path fill="#F3A95E" d="M496.2,214.5h-1.6c0,0-1.6-7.9-1.5-9.8C494.1,206.6,496.1,214.1,496.2,214.5z"/>
	<path fill="#F3A95E" d="M492.4,133.4c0,0,0.1-5.3,2.9-8.1c2.8-2.8,15.5-14.2,15.5-14.2s-4.8,2.7-15.1,11.9
		c0.3-1.2,5.7-11.2,7.2-12.6s18.5-15.3,18.9-15.7c-3.1,1.5-14.2,10.1-14.8,10.3c0.8-1.7,8.8-10.9,13.5-13.5
		c4.6-2.5,14.2-7.3,18.6-8.7c4.4-1.4,15.7-4.7,24.8-5.5c-5.5-0.2-20.1,1.4-34.4,8c2.3-1.8,14.8-7.9,25.5-9.7
		c10.7-1.8,23.4-3.3,40.9,2.7c-0.9,1.4-2.3,3.1-2.3,3.1s-3.4-1.4-7.9-1.9c3.8,1.5,7.1,2.5,7.1,2.8c-0.7,1.1-1.4,2.9-1.4,2.9
		s-0.2,1.3-1.2,0c-1-1.4-3.4-5.4-12.4-6.8c-6.2-1-5.9-0.6-5.9-0.6s1.2,0.5,2.3,0.8c1.2,0.3,6.5,1.4,9.4,3.2c2.9,1.8,5.4,4.3,6,5.1
		c0.6,0.8,0.8,1.6,0.6,2.3s-0.5,2.9-1.9,0.9c-1.4-2-4.7-4.8-7.1-5.9s-6.2-3-6.2-3s-0.9,0.4,0.6,1.1c1.5,0.7,8.4,4.2,10.8,7.1
		c1.4,1.6,2.7,2.9,2.8,3.9c0,1-0.5,2.5-0.5,2.5s-0.4,1.6-1-0.3c-0.6-1.9-2.4-5.1-6.6-7.1c-4.2-1.9-15.4-3.9-16-4s-1.4,0.3-0.1,0.6
		c1.4,0.3,12.6,3.2,13.5,3.5s4.8,2.1,6.6,5.3c1.8,3.2,1.7,5.8,1.7,6.6s-0.3,1.2-1.2,0.1s-4-6.6-9.9-9.5c-3.3-1.5-11.8-2.6-19.9-1.7
		c6.6,0.6,8.1,0.6,9.6,0.6c1.5,0.1,10.7,1.1,14.8,5.8c4.1,4.7,5.1,6.1,5.1,6.1s1.1,1.2,0.1,2.3c-0.8,1.2-1.3,3.1-2.1,1.1
		c-0.8-1.9-2.8-4.6-4.4-5.3s-10-5.1-10-5.1s-1.4,0,0.8,1.3c2.2,1.3,8.2,4.8,8.8,5.3c0.6,0.5,3.7,4.2,4,4.7s0.1,1.8-0.6,0.5
		c-0.7-1.2-4.7-6.1-9.8-7.1s-10.1-3.1-19.9-1.4c-9.7,1.8-26.4,7.6-29.1,9.2c3.9-1,14.6-4.5,17-4.9c2.4-0.5,14.7-3.4,19.9-3.2
		c5.3,0.2,14.2,2,17.7,5.1c3.2,2.9,4,4,3.8,4.8c-0.3,0.8-0.7,1.2-1.2,0.3s-4.9-4.7-7.3-5.5c1.2,1.5,6.1,5.7,6.5,6.3
		c0.4,0.6,1.3,1.2,0.3,2.9c-0.3,0.5-0.8,0.8-1.2-0.3c-0.5-1.1-3.1-5.3-9.7-7.6c-3.1-1.1-11-2.7-23.1,0.1c10-0.3,21.2-2.2,28.3,4
		c1.8,1.8,5.4,4.5,4.4,8.2c-1,3.7-1.2,4.2-1.2,4.2s-0.9,1.2-1-0.6c-0.1-1.8-0.5-7.6-4.6-9.4c-4.1-1.8-8.9-2.7-14.4-3.3
		c3.3,0.8,12.5,2.9,14.6,5.2c2.1,2.3,3.6,4.5,3.5,8.5c-0.1,4-2.1,6.7-4,9.2c-0.1-1.9,0.9-3.2,0.8-4.4s0.4-6.7-2.7-9.8
		c-3.1-3.1-5.8-5.5-11.6-6.7s-14.9-1-16.9-0.6c0.5,0.4,1.8,0.3,1.8,0.3s14.9,0.2,21.1,3.9c3,2,7.4,5.3,7.1,11.1
		c-0.3,5.6-1.2,8.8-3.4,10.3c-2.2,1.5-1.3-0.7-0.9-1.5c0.4-0.8,2.4-8,1-10.9c-1.4-2.9-0.6,0.8-0.6,1.2s0.4,8.1-2.9,13.3
		c-0.5,0.5-3.1,1.9-3.9,2.3c-0.6,0.2-0.8-0.3-0.1-1.2c0.8-0.8,3.9-5,3.9-10.2c0-5.2-2.3-10.8-8.1-13s-14.8-2.6-25.2-0.6
		c0.1,0.1-0.4,0.5,1.4,0.3s12.5-0.6,16.8,0.2s11.5,2.3,13.2,9c0.4,2.1,1.3,8.1-3.1,14.4c-1.7,1.8-3.2,3.5-3.1,1.5
		c1.7-2.3,3.5-5.4,2.8-9.8c-0.5-2.8-3.1-6.2-7.1-8c-4-1.8-11.8-3.7-16.6-3.4c1,0.3,2.3,0.6,2.3,0.6s12,2.3,16.2,5.3
		c1.6,1.6,4.7,4.2,4,8c-0.7,3.8-1.4,6.3-3.7,8.6c0.1-2.2,0.3-5.7-1.6-7.9c-1.9-2.1-6.2-6.5-11.8-7.3c-5.6-0.8-12.4-2.1-25.2-0.6
		c5.5,0.3,22.5,0.2,29.1,3.3c3.9,1.9,6.7,3.4,7.8,7.1c0.6,1.6,1.1,3.5,0.9,5.1s-2.1,1-2.9,0.7c-0.8-0.3-3.7-1.9-5.5-1.8
		c1.2,0.6,4.7,2.5,4.7,2.5s-4.2,0.8-8.6,0c-4.4-0.8-14.2-6-15.6-7c-1.4-1-12.2-5.5-16.8-4.6c-3.8,0.6-4.9-0.1-1.6-0.8
		c3.4-0.8,9.2-1.3,12.9-0.1c3.7,1.2,11.5,4.5,12.7,5.1c1.2,0.5,6.3,2.6,8.4,2.5c-1.9-0.8-18.5-8-18.5-8s-5.8-2.2-12.4-1
		c-2.3,0.4-10.9,4-10.9,4s-2.3,0.4-0.5-0.8c1.9-1.2,11.4-7.3,11.4-7.3l-14.3,8.1c0,0,6.8-7.2,12.5-10.5c5.7-3.3,20.2-12,20.2-12
		s-17.2,7.9-20.4,10.2C507.8,120.1,494.8,130.4,492.4,133.4z"/>
	<path fill="#F3A95E" d="M738,494.6c0,0-5.5-11-4-23.4c1.8-4.4,2.5-7.4,4-19.2c2.1,3.9,3.6,6.5,3.6,6.5v7.7
		C741.6,466.1,734,484.4,738,494.6z"/>
	<path fill="#F3A95E" d="M743.6,476.9c0,0-2.1-5.1-0.5-16.6c1,1.3,1.5,1.5,1.5,1.5S743.4,475.4,743.6,476.9z"/>
	<path fill="#F3A95E" d="M744.6,459.8c0,0,1.4-9.7-4.9-20.9c-0.8,3.6-1.2,8.3-1,9.5c0.9,1.8,3,5.7,3,5.7s-0.6-7.4-0.8-9
		c0.9,0.8,2.1,9.2,2,10.2S744.3,459.2,744.6,459.8z"/>
	<path fill="#F3A95E" d="M715.6,542.7c0,0-7.5-6.6-9.7-20.3s-2.7-24.6-1.7-28.2c0.4-0.3,0.9,0.9,0.9,2.7s0.6,22.9,5.3,33.4
		C712.8,536.6,716.2,543.2,715.6,542.7z"/>
	<path fill="#F3A95E" d="M744.9,367.1c-0.4-8.3-4.7-20.4-4.7-20.4v17.1l-1.3-14.4c0,0-0.7,5.8-2.1,11.7c-2.4,8.9-1.6,16.2-2.8,25
		c-2-12.6,1-23.7,1.8-27.3c0.8-3.6,1.7-8.9,1.1-10.1c-0.9,0.1-2.6,8.8-2.6,8.8s-3.4,9.8-5.3,16.4s-0.7,15.8,0.1,23.7
		c-4.6-9.6-2-23.2-1.3-25.7c0.8-2.5,4.2-13.9,5.2-17.9c1-4,2.8-5.8,4-18.1c1.2-12.3-0.8-18.3-0.8-18.3l-0.5,10.4
		c0,0-0.9-11.9-0.9-13.8c0-1.9-0.6-5.8-4.1-14.7c-3.5-8.9-11.7-21.4-13.2-23.4c-1.5-1.9-12.2-17.1-12.2-17.1s15,29.1,16.5,32.2
		c1.5,3,4.6,10.8,5.6,15.7c1,4.9,3.1,22.9,1.8,28.6c-1.6-21-3.6-29.2-4.3-31.7c-0.7-2.4-5.1-13.6-6.2-15.9
		c-1.2-2.2-8.5-16.8-9.5-18.7c-1-1.9-3.4-6.9-5.8-10.3c-2.3-3.4-7.4-13.6-8.4-15c-1-1.4-7.3-13.2-8.7-16c0.3,4.3,8.3,23.1,10.1,29.2
		c-1.8-2.2-5-10.9-6.6-14.6s-4-11.8-4.6-13.5c-0.6-1.7-3-10.9-4.2-13.8c-1.2-2.8-3.6-9.5-4.5-12.6c-0.9-3.1-3.8-11.9-6.5-20.2
		s-8-19.2-8-19.2s3.8,10.6,5,14s4.1,15.1,4.7,18c0.6,2.9,4.6,21.3,5.5,23.7c0.9,2.3,6.7,22.3,6.7,22.3s-6.6-18-8.1-21.2
		c-1.5-3.2-3.9-14.6-4.2-16.3c-0.3-1.7-2.3-11.6-3.6-18.1c0.2,1.7,0.5,24.1,0.5,24.1s-2.6-21.5-3-27.4c-0.3-5.8-5.7-15.6-7.5-18.2
		s-7.8-13.9-8.7-15.9c-0.9-1.9-5.6-10.4-5.4-11.6c1.5,1.5,13.7,24.6,15.3,26c-1.8-5.3-8.9-26.8-12.1-34.5
		c-3.2-7.7-10.1-18.1-12.7-21.2c0.8,2,6.3,16.4,7.2,20.1c-0.7-1-4.7-9.6-9.4-19s-7.1-13-14.9-19.2c-7.7-6.2-18.2-9.2-18.2-9.2
		s-0.5,0.6-1.2,1.3c5.2,0.3,10.5,3.3,14.3,6.3c3.8,3,10.4,12.6,10.4,12.6s-4.4-4.7-10.4-10.5c-6.1-5.8-15.1-7.3-15.1-7.3
		s-0.7,0.9-1.2,2.5c2.2,0.1,3.9,1.3,3.9,1.3h-4.6c0,0,0,0-0.3,1c12.7-0.1,18.7,8.7,22.8,12.6c4.1,3.9,15.3,21.7,17.3,26.2
		c-5.7-10.2-20.9-27.6-25.9-32.2c-6.6-5.7-15-5.2-15-5.2s0,0-0.8,2.2c6.8,0.9,10.9,5.8,10.9,5.8l8.8,8.7c0,0-2.3-1.9-8.1-6.3
		c-7.1-5.8-12.1-6.8-12.1-6.8l-0.7,1.9l2.9,1.4h-3.3c0,0-0.1,0.6-0.4,1.6c5-0.6,11.5,4.1,14,6.3c2.5,2.2,12.6,12.5,15,17.5
		c-14.4-14.8-18-17.7-21.5-19.9s-7.7-2.6-7.7-2.6l-0.6,1.7l8.7,5.1l-8.8-3.3c0,0-0.2,0.6-0.5,1.2c0.4,0.1,7.4,5.2,13.5,10.1
		s18.3,21.8,22.5,28.5c4.7,6.1,13.5,23.3,14.7,25.2c1.3,1.9,11.6,24.7,12.6,28.1c-0.9-1.6-15.6-29.8-17.3-33.2
		c-1.8-3.4-9.2-16.5-14.6-24.5s-16.5-20.4-21.4-25c-5-4.6-10.2-7.6-10.2-7.6s-0.5,0.2-1.9,2.6c10.8,6.3,24.3,24.5,27.5,30.8
		c-18.6-23.8-28.4-29.7-28.4-29.7s-0.8,1.6-1.9,3c3.8,2.8,6.8,5.2,6.8,5.2s-4.5-2.4-5.4-2.8c0.5,0.9,4.5,4.3,13.4,11.8
		s22.6,24.5,25.6,28.6s10.4,17.3,13.3,23c2.8,5.7,9.7,20.8,12.1,30.5c-6.3-15-13.2-28.3-17.5-36.8c-4.3-8.5-10.6-17.4-13.6-21.5
		c-8.8-10.5-19.7-20.9-21.1-22.5c-1.4-1.6-13.5-11.7-14.5-13.1c-1,0.8-1.4,2.9,0.1,5.7c3.1,6.4,16.9,21.4,18.5,23.8
		c-14.5-12.8-19.7-21.5-20.5-23.8c-1.4,1.8-1.1,3.1-1.1,3.1l1,3.4c0,0,0,0-1.6-2.3c-0.7,1.2-1.4,2-0.5,3.9
		c4.1,7.7,11.4,14,16.9,20.8c-15.2-13-17.4-18.3-18.2-20c-0.9,0.7-1.7,3-0.6,6.2c2.1,6.3,12.6,14.8,16.5,19
		c-17.3-11.8-17.5-17.1-18.3-19.9c-2.1,2.1-0.8,4.7-0.8,4.7c3.1,6.8,10.6,13.7,13.7,16.1c3.1,2.3,13.6,10.2,20.1,15.1
		c6.4,5.2,7.3,6.5,9.8,8.1c-0.7-1.5-9.5-10.4-13.6-15.6c11.4,8.8,18,19.8,19.6,21c-0.5-2.6-6.3-11.9-7-13c-0.6-1.1-9.6-14.7-11-17.5
		c1.9,1.9,8.1,9.8,10.4,13c2.3,3.2,4.3,6,6.7,10.4c1.9,3.3,7,14.4,8,16.4c1,1.9,5.6,10.8,5.6,10.8s-3.5-4.8-6.2-9.6
		c0.4,4.2,1.9,6.3,3.6,14.2c1.8,7.8,1.6,17.5,1.6,17.5s-2.1-12-3.1-14.7c0.4,7.2-1,16.2-1.4,18.8s-1.7,14.8-1.9,21
		c-0.2,6.1,0.4,14.5,0.9,22.4c0.5,7.8,4.7,20,5.8,22.9c1.1,2.8,1.9,3.4,1.6,2.3c-0.7-1.6-3-9.6-3.7-13.1c-0.7-3.5-1.5-12.8-1.7-15.8
		c-0.2-3.1,0.9-21,1.1-22.7c0.2-1.7,0.1-5.1,1.8-16.1c0.1,2.9-0.6,24.3-0.9,34.5s1.9,22,4.2,29.8c2.3,7.8,9.4,18.6,14.3,23.8
		c8.8,8.5,14,19.2,16.3,23.8c2.2,4.6,5.8,19.4,6,22.1c0.3,2.7,4.3,18.7,3.3,23.2c-1.4-9-5.6-25.2-5.6-25.2s1.7,10.1,1.1,12.3
		c-0.5-1.8-2.6-12.4-2.7-13.9s-1-3.2-1.2-6.9s-3.5-13-4.9-13.8c0.4,2.1,2.9,10.6,2.6,16.6c-1-3.5-4.4-17.1-5.3-20
		c-0.9-2.9-5-9.6-6.5-10.5c0.7,2.3,1.4,8.7,1.4,8.7l-4-9.6c0,0-0.2,5.2-0.8,10.3c-0.6,5.2,0.3,13,0.9,16.7c0.6,3.7,6.5,16.7,10,20.1
		c-2.2-4-8-24.7-5.9-32c2.1,24.9,11,40.2,13.6,42.8c-0.7-1.8-5.9-15.6-5.3-19.5c7.7,24.7,13,28.3,13.8,29.1c0.8,0.9,2.8,5.8,4.6,6.6
		c-0.8-1.6-1.7-8.5-1.9-10.2c-0.2-1.8-1.2-15.2-1.3-17.6s-3.4-22.6-3.4-22.6s3.7,15,4.3,18.8c0.6,3.8,1.3,11.3,1.5,19.9
		c0.2,8.6,4,16.5,5.2,17.5c-0.4-2-2-8.4-2.3-11.3c-0.3-2.9-0.5-15.7-0.8-19.4s-1.3-14.9-2.6-20.8c-1.4-5.8-5.9-20.4-5.4-22.1
		c7.9,20.2,8.5,31,8.9,34.5c0.4,3.5,0.7,12.5,1.1,21.3c0.4,8.9,2,15.2,3.4,18.6c-1-11.6-0.7-27.5,1.6-34.5c-1,17-0.5,24.1-0.3,30
		c0.2,5.9,3.4,16.9,3.9,18.4s1.9,3.7,1-0.7c-0.9-4.4-1.3-13.3-1.3-15.5s0.8-17.9,0.7-21.9c-0.1-4,1.3-13.6,1.3-13.6
		s-0.1,30.1-0.1,36.8s1.1,15.1,1.5,17.5s5.5,22,6.3,24.3c0.2-1.6-2.6-21.5-1.7-24c0,2,3,21.2,3,22.6s-0.5,3.9,0.3,11.1
		c0.8,7.2-0.2,18.1-0.5,20.4s-0.9,8-0.7,11.8c0.3-0.5,3.5-6.6,5.8-17.3c2.2-10.7,0.9-25.5,0.3-29.5c-0.6-4-4-25.7-4-25.7
		s3.1,9.8,5.1,22.9c3.5,14.9,0.9,28,0.2,32.6c-0.7,4.6-5.3,15.7-6.1,17.8c-0.9,2.1-1.7,6-1.6,9.6c0.1,3.5,0.8,5.5,1.6,13.9
		c0.8,8.5,5.1,21.8,6.4,23c-1-3.1-2.5-14.8-2.9-19.3c-0.4-4.5-0.1-20.9-0.1-20.9s1.1,14.7,1.6,20.4c0.5,5.7,2.3,19.6,4.6,25.5
		c2.2,5.9,8.3,12.9,13.1,14.3c4.8,1.5,3.1,0.1,0.6-1.2c-7.8-4.1-10.2-10.3-11.3-13.5c-1.1-3.2-2.2-11.1-2.7-16.9
		c-0.5-5.8-0.2-18.1,0.5-29.1c0.7-11,2.1-20,2.1-20s-1.1,29.2-1.4,38.2s1,14.6,2.1,23.5c1.2,8.9,6.8,13.8,9.5,15.5s1.1-0.5,0-2.3
		s-3.3-7.5-5-12.6c-1.7-5.1-2.3-16.9-2-22.8c0.3-5.9,0.9-13.6,1.6-17.1c0.7-3.4,2.2-11.7,2.2-15.6c1.5-21.5-0.1-39.1,0.3-43.6
		c1,2.9,2,24.1,1.9,27.2s-0.7,17.1-0.7,17.1s1-1.7,3.5-13c4.6-19.1,2-30.3,1.8-34.3s-0.3-13.9,0-16.7c0.3-2.7,2.8-17.4,3.7-19.8
		c0.9-2.3,5.2-21,5.2-21s-0.1,7.5-2.7,18.8c-0.8,2.3-3.8,16.4-4.5,21.3c-0.7,5-0.2,14.9-0.2,14.9s2.2-11.9,2.8-17.1
		c0.6-5.2,4.6-19.6,5.5-26.5C744.3,381.5,745.3,375.4,744.9,367.1z M596,141.5c0,0-1.7-2.5,0.7-0.5c2.1,2.4,3.7,4.5,3.7,4.5
		S597.8,143.6,596,141.5z M669.9,228.8c0,0,3.1,13.2,3.4,14.7c0.3,1.6,2.9,10.7,7,16.5c4.1,5.8,8.4,11.6,9.7,13.1
		c1.4,1.5,12,15.3,14.3,23.8c-2.2-1.3-5.7-10.4-12.7-19c-7-8.6-16.2-21.5-18-28.7C671.8,242,669,230.6,669.9,228.8z M641.2,147
		c-5.4-9.3-12.2-25.8-20.2-33c0,0-3.1-4.2,0.5-0.8s8,9,11.8,15.4s9.9,18.7,13.5,25.7c3.6,7,11.1,26.3,11.5,28.9
		C656.4,179.8,646.6,156.3,641.2,147z M651.3,275.4c0.3,1.6,0.8,7.5,3.2,12.1s5,9.8,5,9.8s-5.6-6.7-7.2-11
		c-1.7-4.3-2.6-10.3-3.1-13.9c-0.5-3.6-2.2-20.4-2.3-23.9c-0.1-3.5-0.3-21.3-3.4-27.2c0,0-1-4.3,0.8-0.8c1.8,3.5,2.7,9.7,3.1,14.5
		s1.8,21.8,1.9,23.7C649.5,260.7,651,273.8,651.3,275.4z M633.3,179.4c-1.3-2.9-4.9-13.3-11.8-21c-6.8-7.7-10.4-13-10.4-13
		s-1.5-2.7,1,0c2.4,2.7,10.5,11.9,11.9,14.1s6.4,9.1,9.3,15.5c3,6.4,8.5,18.7,10.5,25.5c1.9,6.8,4.2,12.3,4,14.1
		c-1.4-2.1-6-15.1-7-17.5C639.7,194.8,634.6,182.2,633.3,179.4z M666.3,322.7c-1.4-2-8.4-10.6-10.4-13.1
		c-2.1-2.4-10.7-14.7-12.8-22.8c-2.1-8.1-3.5-15.2-3.7-27.4c-0.2-12.2,0-22.3,0-22.3s1.1-4.1,1.1,0s0,17.8,0,17.8s0.2,9.8,0.8,14.8
		c0.6,5,3.1,16.1,5,20.1c1.9,4,5.6,10.9,7.5,13.1c1.9,2.3,6.8,8.6,8.7,10.7s7.8,11.1,9.5,14.4c1.7,3.3,4.2,9.5,4.2,9.5
		S667.7,324.8,666.3,322.7z M691.2,353.4c-0.2-1.3-2.2-15.4-3.7-20.5c-1.5-5.1-5.3-14.8-6.4-17.3c-1.2-2.4-4.2-7.2-4.2-7.2
		s-1-3.2,0.6-0.9s5,6.6,8.2,15.5c3.1,8.9,6,18.6,6.4,25.5c0.5,6.9,0.5,13.2,0.5,13.2S691.4,354.6,691.2,353.4z M687.1,308.7
		c-1.4-2.5-6.2-11.1-12.8-17.8c-6.5-6.7-11-16.7-13-21.6c-1.9-5-3.2-14.9-3.4-17.8s-0.5-10.2-0.4-13.1c0.1-2.8-0.2-12.1-1.6-17
		c0,0-0.5-4.1,0.9,0c1.4,4.1,1.5,10.4,1.8,13.7c0.3,3.3,0.5,14.1,0.5,14.1s1.4,13.1,4.3,19.5c2.9,6.4,7.4,14.5,11.6,19.4
		c4.2,4.9,10.1,12.2,12.8,17.9c2.6,5.8,5.8,14.1,5.8,14.1S688.5,311.2,687.1,308.7z M709.4,396.4c-0.9-4.6-1.8-16.6-1.5-20.6
		c0.3-4,0.7-22.2,0.3-25c-0.4-2.8-1.1-6-1.1-6s-0.4,17.8-1.5,22.5c-0.4-6.2,0.5-24.2-0.4-30c-0.9-5.8-2.6-14.3-3.4-16.5
		c-0.8-2.2-3-10.3-7-16.7c-4-6.3-5-7.8-7.3-11.2c-2.3-3.4-10-13.7-11.5-15.7c-1.5-1.9-7.8-14-9.2-19c-1.4-5-3.1-15.1-3.3-20.3
		c-0.2-5.2-0.9-17.4-3.6-23.4c-2.7-6-5.8-12.4-4.7-12.1c0,0,8.1,11.3,8.6,25c1,13.6,2.9,25,4.6,30.1c1.7,5.1,5.8,13.1,7.6,15.9
		c1.9,2.8,10.3,14.6,13,18.2c2.6,3.6,10.1,13.9,13.2,23.4c3,9.5,4.6,14.8,5.4,20.1c0.8,5.3,2.3,13.9,2.2,18.3
		c-0.1,4.4,0,25.4,0,27.6s1.2,15.3,2.3,21.2c1.2,5.8,3.7,18.3,4,19.1C714.7,419.3,710.3,401,709.4,396.4z M712.1,295.3
		c-3.9-5.9-18.5-32.5-18.5-32.5s-1.5-4,0.9-0.5c2.3,3.5,11.2,18.5,12.1,20.1c0.9,1.6,6.1,9.9,6.9,11.1c0.8,1.2,8.1,14.4,9.3,21.5
		c1.2,7.1,2,13.5,1.9,24.8c-0.1,11.2-2,26-3.3,29.3c0.6-5.8,1.6-25.9,1.7-31.8c0.1-5.9-0.6-19.2-3-25.4
		C717.5,305.6,716,301.2,712.1,295.3z M725.7,429c-1-3.8-0.8-6.8-1.1-8.4s-1.9-7.9-2.9-10.8c-1.1-2.9-2.7-10.6-2.5-14.2
		c0.2-3.6,0-11.1,0-11.1s0.9-3.3,0.9,0c0,3.3-0.4,11.5,0,13.6c0.4,2.1,1.9,8.4,2.7,11.1C723.7,411.9,726.9,419,725.7,429z"/>
</g>
<g id="google">
	<g>
		<path fill="#FFFFFF" stroke="#000000" stroke-width="0.3899" stroke-miterlimit="10" d="M619.2,185.5l-10.4,18.3c0,0-1,1.9-1.8,2
			c-0.8,0.2-1,1-1.4,1.4c-0.4,0.4-5.8,11.9-5.8,11.9s-1.2,3-3,3.3c-1.9,0.2-5.1,0-5.1,0s-0.9-0.4-1.6,0.7c-0.5,0.5-1,0.2-1,0.2
			s-13,1.3-23.5,2.9c-5.7,0.8-13,2.5-15.3,2.9s-12.9,2.7-13.5,3s-1.6,0.8-2,1.4c-0.4,0.6-0.9,2.2-3.7,1.9c-2.7-0.3-4.9-2.4-4.9-2.4
			s-2.3-1.4-4.7-1.8c-2.4-0.4-19.7-3.3-19.7-3.3l-23.9-3.9c0,0-5.3-0.3-6-2.1c0,0-4,1.2-2.3,5.2c1.7,4,3.9,8.6,8,12.5
			c4.1,3.9,8.2,8.5,14.9,11.7c6.7,3.3,14.1,4.8,18.2,5.6c4.1,0.8,10.3,1.8,15.3,0.4c1.4-0.7,2.8-1.2,3.1-1.6
			c0.3-0.4,3.1-3.3,3.2-4.4c0.1-1,1.3-4.2,1.5-4.7c0.2-0.5,0.7-3.3,0.6-3.7s-0.4-1.7,1.7,0c2,1.7,4.8,3.6,10.1,7.8
			c4.4,3.1,11,5.9,12.4,6.2c1.5,0.3,6.4,2.3,21.5,0.8c3.1-0.1,13-1.8,19.5-6.6c1.6-1.4,4.4-3.4,4.5-10.4c-0.1-1.3-2.2-6.7-2.2-6.7
			c0.9-0.5,2.2-1.4,1.4-3.3s-1.1-2.1-0.4-2.7c0.7-0.6,0.9-0.4,1.3-1.1c0.4-0.7,7.4-17.3,7.4-17.3c0.4-1,3.9-8.1,4.9-9.9
			c1-1.9,5.1-8.6,5.1-8.6C621.1,190.1,619.2,185.5,619.2,185.5z M528.6,250.1c0,1.2-0.4,3.9-3.3,4.1c-2.9,0.2-8.8,0.2-13.9-0.7
			c-5.1-0.9-16.7-3.7-23.4-8.7c-6.7-5-9.5-11.3-10.2-12.2c0,0-1.1-4.4,1.7-4.1c2.8,0.2,12.3,2,13.2,2.3c0.9,0.3,14.7,2.9,15.8,3
			c1.1,0.1,9.7,2,10.3,2.1c0.6,0.1,7.3,1.7,8.3,6C528.1,246.3,528.6,248.9,528.6,250.1z M598.8,248.7c-1.1,1.1-7.4,5.5-18.6,7
			c-3.2,0.4-20.3,0.4-23.9-2.4c-3.6-2.8-15.7-12.3-16.4-13.7c0,0-1.1-1.2,1-2.7c2.2-1.5,7.5-3,20.6-5.2c13.1-2.1,17.3-2.9,20.8-2.9
			c3.5,0.1,8,0.4,10.5,3.5c2.5,3.2,4.7,5.8,5.9,9.9C599.3,243.7,599.9,247.5,598.8,248.7z"/>
		<path fill="none" stroke="#000000" stroke-width="0.3899" stroke-miterlimit="10" d="M479.4,228.5c-4.9-0.7-3,4.8-3,4.8
			s4.2,7.4,7.7,10.4c3.5,3,7.3,5.9,9.9,6.7c2.7,0.8,13.2,4.6,19.4,5.3c6.2,0.6,11.1,0.9,13.6-1c1-1,1.5-3,1.5-4.5"/>
		<path fill="#FFFFFF" stroke="#000000" stroke-width="0.3899" stroke-miterlimit="10" d="M470.3,222.9c-0.1,1.9,3.7,2.6,3.7,2.6
			s13.8,2.2,15.6,2.5c1.8,0.2,24.6,4.1,24.6,4.1l9.7,1.8l0.3-1.6"/>
		<path fill="none" stroke="#000000" stroke-width="0.3899" stroke-miterlimit="10" d="M523.9,233.8c0,0,3.3,2.1,3.8,2.4
			c0.5,0.3,2.6,1,4.3,0.8c1.7-0.1,2.9-1,3.4-1.6c0.5-0.6,0.1-2.3,0.1-2.3"/>
		<path fill="#FFFFFF" stroke="#000000" stroke-width="0.3899" stroke-miterlimit="10" d="M535.5,235.1c0,0,9.6-2.1,10.6-2.5
			c1-0.3,17.2-3.5,18.7-3.9c1.6-0.3,15.7-2.3,16.8-2.4c1.1-0.1,8.3-0.7,8.3-0.7v-2.3"/>
		<path fill="none" stroke="#000000" stroke-width="0.3899" stroke-miterlimit="10" d="M590,225.7l6.8-0.4l-0.5-1.9l1.4,1.9
			c0,0,1.8-2,0.5-2.8l-0.2-0.5l2.3,0.5l8.1-15.6c0,0-0.3-1.1-1.1-1.1c0.5-0.5,0.9-0.3,0.9-0.3l0.6,0.9c0,0,10.5-17.5,10.9-19.5"/>
		
			<line fill="#FFFFFF" stroke="#000000" stroke-width="0.3899" stroke-miterlimit="10" x1="600.3" y1="222.4" x2="602.9" y2="227.9"/>
		
			<line fill="#FFFFFF" stroke="#000000" stroke-width="0.3899" stroke-miterlimit="10" x1="598.6" y1="223.1" x2="602.5" y2="228.8"/>
		<line fill="#FFFFFF" stroke="#000000" stroke-width="0.3899" stroke-miterlimit="10" x1="597.7" y1="225.3" x2="601.9" y2="234"/>
		<path fill="none" stroke="#000000" stroke-width="0.3899" stroke-miterlimit="10" d="M598.6,251.8c0,0,4.8-3,3.9-9
			c-0.5-2.3-3.3-9.1-3.5-9.8c-0.3-0.7-1.4-5.2-1.3-7.1c0.2-0.3,0.2-0.3,0.2-0.3"/>
		<path d="M602.1,241.4c0,0,0.1-1.1-0.2-2.6c0.3,0.6,1.5,4.4,1.4,4.6c0.1-1.8,0.2-5.3-0.2-6.1c-0.3-0.7,0.5,1.5,0.5,1.5
			c0.7,1.9,0.5,3.7,0.4,4.1c-0.2,0.6-0.8,5.8-4.2,8.1C600.8,249.8,603.8,244.9,602.1,241.4z"/>
		<path opacity="0.3" fill="#84CAF0" stroke="#000000" stroke-width="0.3899" stroke-miterlimit="10" d="M528.6,250.1
			c0,1.2-0.4,3.9-3.3,4.1c-2.9,0.2-8.8,0.2-13.9-0.7c-5.1-0.9-16.7-3.7-23.4-8.7c-6.7-5-9.5-11.3-10.2-12.2c0,0-1.1-4.4,1.7-4.1
			c2.8,0.2,12.3,2,13.2,2.3c0.9,0.3,14.7,2.9,15.8,3c1.1,0.1,9.7,2,10.3,2.1c0.6,0.1,7.3,1.7,8.3,6
			C528.1,246.3,528.6,248.9,528.6,250.1z"/>
		<path opacity="0.3" fill="#84CAF0" stroke="#000000" stroke-width="0.3899" stroke-miterlimit="10" d="M598.8,248.7
			c-1.1,1.1-7.4,5.5-18.6,7c-3.2,0.4-20.3,0.4-23.9-2.4c-3.6-2.8-15.7-12.3-16.4-13.7c0,0-1.1-1.2,1-2.7c2.2-1.5,7.5-3,20.6-5.2
			c13.1-2.1,17.3-2.9,20.8-2.9c3.5,0.1,8,0.4,10.5,3.5c2.5,3.2,4.7,5.8,5.9,9.9C599.3,243.7,599.9,247.5,598.8,248.7z"/>
	</g>
</g>
</svg>
