<svg width="266" height="217" viewBox="0 0 266 217" fill="none" xmlns="http://www.w3.org/2000/svg">
<path d="M111.027 214.426C111.027 214.426 125.786 179.342 162.684 203.801C162.684 203.801 171.703 168.718 207.78 185.546C207.849 184.833 195.413 147.04 241.74 155.098C242.013 155.669 225.819 123.153 262.921 118.945C262.238 119.801 229.987 95.628 261.35 78.0864C261.35 78.0864 218.166 66.7486 237.435 36.5143C237.367 37.1561 195.003 53.842 190.767 15.4787C191.176 15.4787 145.055 38.0118 124.761 3C122.916 3 108.157 35.516 63.8806 14.6944C63.8806 15.5501 71.2601 54.6977 17.7589 41.3632C16.8023 43.0033 35.3193 66.9625 3 72.0966C3 73.0949 38.0525 93.9879 6.68973 117.305C6.68973 118.09 42.2888 129.499 13.1809 155.098C12.2243 155.669 59.3026 156.596 50.0783 191.964C50.1466 193.176 93.5352 168.932 111.027 214.426Z" fill="white" stroke="#F15822" stroke-width="5" stroke-miterlimit="10" stroke-linejoin="round"/>
</svg>
