<svg xmlns="http://www.w3.org/2000/svg" viewBox="0 0 50.04 33.67">
  <path
    d="M49,13.38h0C38.25-1.09,22.11-3.82,9.33,5.18L44.1,25.74A38.09,38.09,0,0,0,49,20.29h0A6.14,6.14,0,0,0,49,13.38Z"
    fill="#5a5a5a" />
  <path
    d="M1.06,13.38h0a6.17,6.17,0,0,0,0,6.91h0c11.23,15.15,28.39,17.43,41.41,6.86L7.57,6.52A37.87,37.87,0,0,0,1.06,13.38Z"
    fill="#5a5a5a" />
  <path d="M7.57,6.52l34.9,20.63c.55-.44,1.09-.92,1.63-1.41L9.33,5.18C8.74,5.6,8.15,6.05,7.57,6.52Z"
    fill="#fff" />
  <circle cx="25.02" cy="16.84" r="10.6" fill="none" stroke="#fff" stroke-linecap="round"
    stroke-linejoin="round" stroke-width="4" />
  <path
    d="M24.43-7.44h1.45a0,0,0,0,1,0,0V44.11a0,0,0,0,1,0,0H24.43a2,2,0,0,1-2-2V-5.4a2,2,0,0,1,2-2Z"
    transform="translate(-3.93 29.78) rotate(-59.41)" fill="#5a5a5a" />
</svg>